<?xml version="1.0" encoding="UTF-8" standalone="no"?>
<svg xmlns="http://www.w3.org/2000/svg" width="128.58893mm" height="123.57372mm" viewBox="0 0 128.58893 123.57372" version="1.1" id="svg8">
  <path id="path854" d="m 12.5065,45.452465 c -3.3753,0 -6.09265,2.717352 -6.09265,6.14071 0,3.423357 2.71735,6.140713 6.09265,6.140713 h 17.66972 v 51.331182 h -22.672 c -3.88027,0 -7.00422,3.12395 -7.00422,7.00422 0,3.88026 3.12395,7.00371 7.00422,7.00371 11.67043,0 23.34087,0 35.0113,0 1.28366,0.0315 1.66863,-0.91513 1.66863,-1.6769 v -19.78277 h 18.76119 c 0.88101,10e-5 0.98541,0.81619 0.37023,1.26068 l -9.51702,7.86641 c -2.95084,2.51972 -3.29796,6.92401 -0.77824,9.87485 2.51971,2.95084 6.924,3.29797 9.87485,0.77825 l 21.3956,-18.26909 c 0.51939,-0.41514 0.43176,-1.55357 0.0207,-1.94699 L 64.90896,82.338018 V 57.733886 H 118.623 c 3.37529,0 6.09266,-2.717356 6.09266,-6.140713 0,-3.423358 -2.71737,-6.14071 -6.09266,-6.14071 z" style="fill:#888888;fill-opacity:1;stroke:#000000;stroke-width:1;stroke-miterlimit:4;stroke-dasharray:none;stroke-dashoffset:0;stroke-opacity:1" />
  <circle style="fill:#888888;fill-opacity:1;stroke:#000000;stroke-width:1;stroke-miterlimit:4;stroke-dasharray:none;stroke-dashoffset:0;stroke-opacity:1" id="circle839" cx="47.254879" cy="27.100668" r="12.66492" />
  <path style="fill:none;stroke:#000000;stroke-width:1;stroke-linecap:butt;stroke-linejoin:miter;stroke-miterlimit:4;stroke-dasharray:none;stroke-opacity:1" d="m 110.71288,0.290689 c 25.97909,36.357451 20.17637,69.905421 0,102.182831" id="path843" />
</svg>
