<?xml version="1.0" encoding="UTF-8" standalone="no"?>
<svg xmlns="http://www.w3.org/2000/svg" width="122.67486mm" height="160.12875mm" viewBox="0 0 122.67486 160.12875" version="1.1" id="svg892">
  <circle r="12.66492" cy="27.100666" cx="41.340813" id="path815" style="fill:#888888;fill-opacity:1;stroke:#000000;stroke-width:1;stroke-miterlimit:4;stroke-dasharray:none;stroke-dashoffset:0;stroke-opacity:1" />
  <path id="rect819" d="m 6.5926511,45.452253 c -3.3752975,0 -6.09265113,2.717356 -6.09265113,6.140713 0,3.423357 2.71735363,6.14071 6.09265113,6.14071 H 24.262372 v 94.890794 c 0,3.88026 3.123962,7.00423 7.004225,7.00423 3.880262,0 7.003706,-3.12397 7.003706,-7.00423 V 107.434 h 6.716387 v 45.19052 c 0,3.88026 3.123962,7.00423 7.004224,7.00423 3.88026,0 7.004222,-3.12397 7.004222,-7.00423 V 57.733674 h 53.714034 c 3.3753,0 6.09265,-2.717353 6.09265,-6.14071 0,-3.423357 -2.71735,-6.140713 -6.09265,-6.140713 z" style="fill:#888888;fill-opacity:1;stroke:#000000;stroke-width:1;stroke-miterlimit:4;stroke-dasharray:none;stroke-dashoffset:0;stroke-opacity:1"/>
  <path id="path831" d="m 104.79882,0.290689 c 25.97909,36.357451 20.17637,69.905421 0,102.182831" style="fill:none;stroke:#000000;stroke-width:1;stroke-linecap:butt;stroke-linejoin:miter;stroke-miterlimit:4;stroke-dasharray:none;stroke-opacity:1" />
</svg>
