<?xml version="1.0" encoding="UTF-8" standalone="no"?>
<svg
   data-v-423bf9ae=""
   viewBox="0 0 88.892998 90"
   class="iconLeft"
   version="1.1"
   id="svg16"
   sodipodi:docname="arqueria_logo.svg"
   width="88.892998"
   height="90"
   inkscape:version="1.1.2 (0a00cf5339, 2022-02-04)"
   xmlns:inkscape="http://www.inkscape.org/namespaces/inkscape"
   xmlns:sodipodi="http://sodipodi.sourceforge.net/DTD/sodipodi-0.dtd"
   xmlns="http://www.w3.org/2000/svg"
   xmlns:svg="http://www.w3.org/2000/svg">
  <defs
     id="defs20" />
  <sodipodi:namedview
     id="namedview18"
     pagecolor="#ffffff"
     bordercolor="#666666"
     borderopacity="1.0"
     inkscape:pageshadow="2"
     inkscape:pageopacity="0.0"
     inkscape:pagecheckerboard="0"
     showgrid="false"
     width="88.893px"
     inkscape:zoom="2.1371429"
     inkscape:cx="125.86898"
     inkscape:cy="44.919786"
     inkscape:window-width="1366"
     inkscape:window-height="676"
     inkscape:window-x="0"
     inkscape:window-y="25"
     inkscape:window-maximized="1"
     inkscape:current-layer="svg16" />
  <!---->
  <!---->
  <!---->
  <!---->
  <g
     data-v-423bf9ae=""
     id="9823a1aa-3297-4cd9-a526-711d9f51a49c"
     transform="matrix(3.3334568,0,0,3.3334568,-8.6629715,-7.8359742)"
     stroke="none"
     fill="#f9b200">
    <g
       color="#000000"
       font-weight="400"
       font-family="sans-serif"
       white-space="normal"
       id="g13">
      <path
         style="line-height:normal;text-indent:0;text-align:start;text-decoration-line:none;text-decoration-style:solid;text-decoration-color:#000000;text-transform:none;isolation:auto;mix-blend-mode:normal"
         d="M 14.463,6.25 C 8.314,6.25 3.338,11.224 3.338,17.373 A 11.12,11.12 0 0 0 14.463,28.498 11.12,11.12 0 0 0 25.588,17.373 c 0,-2.713 -0.984,-5.184 -2.596,-7.113 l -2.303,2.304 a 7.832,7.832 0 0 1 1.649,4.81 c 0,4.344 -3.53,7.874 -7.875,7.874 -4.345,0 -7.875,-3.53 -7.875,-7.875 a 7.88,7.88 0 0 1 7.875,-7.875 7.83,7.83 0 0 1 4.808,1.649 L 21.576,8.844 A 11.056,11.056 0 0 0 14.463,6.25 Z"
         overflow="visible"
         id="path5" />
      <path
         style="line-height:normal;text-indent:0;text-align:start;text-decoration-line:none;text-decoration-style:solid;text-decoration-color:#000000;text-transform:none;isolation:auto;mix-blend-mode:normal"
         d="m 14.463,10.248 a 7.12,7.12 0 0 0 -7.125,7.125 7.12,7.12 0 0 0 7.125,7.125 7.12,7.12 0 0 0 7.125,-7.125 7.07,7.07 0 0 0 -1.44,-4.266 l -2.338,2.34 c 0.33,0.57 0.528,1.223 0.528,1.926 a 3.88,3.88 0 0 1 -3.875,3.875 3.88,3.88 0 0 1 -3.875,-3.875 3.88,3.88 0 0 1 3.875,-3.875 3.83,3.83 0 0 1 1.928,0.527 l 2.34,-2.337 a 7.073,7.073 0 0 0 -4.268,-1.44 z"
         overflow="visible"
         id="path7" />
      <path
         style="line-height:normal;text-indent:0;text-align:start;text-decoration-line:none;text-decoration-style:solid;text-decoration-color:#000000;text-transform:none;isolation:auto;mix-blend-mode:normal"
         d="m 14.463,14.248 a 3.12,3.12 0 0 0 -3.125,3.125 3.12,3.12 0 0 0 3.125,3.125 3.12,3.12 0 0 0 3.125,-3.125 c 0,-0.496 -0.128,-0.956 -0.334,-1.371 l -0.988,0.99 c 0.153,0.054 0.332,0.063 0.435,0.176 0.182,0.198 0.256,0.446 0.258,0.68 0,0.234 -0.072,0.478 -0.25,0.68 -0.178,0.201 -0.47,0.325 -0.754,0.324 l -1.986,0.023 a 1,1 0 0 1 -1.004,-0.998 0.625,0.625 0 0 1 0,-0.01 V 15.89 a 1.01,1.01 0 0 1 0.982,-1.02 c 0.435,-0.01 0.656,0.406 0.797,0.797 l 1.088,-1.088 a 3.06,3.06 0 0 0 -1.37,-0.332 z M 5.539,25.186 c 0.385,0.44 0.8,0.856 1.246,1.235 A 0.375,0.375 0 0 0 6.652,26.536 L 4.545,29.5 H 2.664 l 2.875,-4.312 z m 17.847,0 2.875,4.313 h -1.88 L 22.273,26.536 A 0.375,0.375 0 0 0 22.14,26.421 c 0.447,-0.38 0.86,-0.794 1.247,-1.235 z"
         overflow="visible"
         id="path9" />
      <path
         d="m 26.957,2.501 a 0.375,0.375 0 0 0 -0.37,0.38 V 4.72 l -1.25,1.25 V 4.882 a 0.375,0.375 0 0 0 -0.38,-0.381 0.375,0.375 0 0 0 -0.37,0.38 V 6.72 L 14.34,16.968 14.342,15.882 a 0.375,0.375 0 0 0 -0.38,-0.381 0.375,0.375 0 0 0 -0.37,0.38 l -0.004,1.993 a 0.375,0.375 0 0 0 0.38,0.375 l 1.991,-0.02 a 0.37501633,0.37501633 0 1 0 -0.007,-0.75 L 14.88,17.491 25.12,7.251 h 1.836 a 0.375,0.375 0 1 0 0,-0.75 H 25.87 l 1.25,-1.25 h 1.836 a 0.375,0.375 0 1 0 0,-0.75 H 27.339 V 2.883 a 0.375,0.375 0 0 0 -0.381,-0.38 z"
         style="line-height:normal;text-indent:0;text-align:start;text-decoration-line:none;text-decoration-style:solid;text-decoration-color:#000000;text-transform:none;isolation:auto;mix-blend-mode:normal"
         overflow="visible"
         id="path11" />
    </g>
  </g>
  <!---->
</svg>
