<?xml version="1.0" encoding="UTF-8" standalone="no"?>
<svg id="Layer_1" xmlns:rdf="http://www.w3.org/1999/02/22-rdf-syntax-ns#" xmlns="http://www.w3.org/2000/svg" xml:space="preserve" viewBox="0 0 900 600" version="1.0" xmlns:cc="http://creativecommons.org/ns#" xmlns:dc="http://purl.org/dc/elements/1.1/"><metadata id="metadata17"><rdf:RDF><cc:Work rdf:about=""><dc:format>image/svg+xml</dc:format><dc:type rdf:resource="http://purl.org/dc/dcmitype/StillImage"/></cc:Work></rdf:RDF></metadata><rect id="rect3212" height="462.71" width="900" y="0" x="0" fill="#fff"/><rect id="rect4183" height="264.83" width="900" y="200" x="0" fill="#005da4"/><rect id="rect6123" height="200" width="900" y="400" x="0" fill="#ed1c24"/><path id="path13" fill="#ed1c24" d="m175.41 115.34c-6.43 0.51-5.6 5.43-5.02 10.14 1.98 29.63 3.54 59.3 5.79 88.91 4.21 38.4 32.23 72.84 69.04 84.66 9.03 1.8 17.85-5.52 25.92-9.14 30.04-17.49 49.33-51.19 49.93-85.86 1.82-28.72 3.63-57.45 5.45-86.18-5.26-4.41-6.28-1.54-5.89 3.55-2.04 30.75-3.69 61.53-5.98 92.26-4 36.73-31.09 69.58-66.44 80.4-35.7-10.92-62.94-44.34-66.55-81.48-2.27-32.41-4.14-64.85-6.25-97.26"/><path id="path15" fill="#005da4" d="m321.02 115.34c-45.7-20.411-99.91-20.411-145.61 0 2.17 32.78 3.95 65.59 6.37 98.34 4 36.73 31.09 69.58 66.44 80.4 37.34-11.51 64.84-46.86 66.93-85.85"/><path id="use2825" fill="#fd0" d="m252.62 143.45c2.47-2.9 4.43-5.52-0.82-3.96-3.01 1.25-2.92-8.29-4.61-2.52 0.51 4.82-6.74 0.73-6 2.9 3.21 2.56 2.28 5.12-0.38 7.68 1.72 0.46 6.63-1.6 6.64 2.97 1.69 4.66 1.45-5.48 4.99-3.04 1.13 0.13 2.27 0.25 3.4 0.37"/><path id="polyline19" fill="#fd0" d="m232.07 116.04c2.46-2.9 4.43-5.51-0.82-3.96-3.02 1.25-2.93-8.29-4.61-2.52 0.5 4.83-6.75 0.73-6.01 2.9 3.21 2.56 2.29 5.12-0.37 7.68 1.72 0.46 6.62-1.6 6.63 2.97 1.7 4.67 1.45-5.48 4.99-3.03 1.14 0.12 2.27 0.24 3.41 0.37"/><path id="use2827" fill="#fd0" d="m273.17 116.04c2.47-2.9 4.44-5.51-0.81-3.96-3.02 1.25-2.93-8.29-4.62-2.52 0.51 4.83-6.74 0.73-6 2.9 3.21 2.56 2.29 5.12-0.38 7.68 1.72 0.46 6.63-1.6 6.64 2.97 1.7 4.67 1.45-5.48 4.99-3.03 1.14 0.12 2.27 0.24 3.41 0.37"/><path id="path23" fill="#fff" d="m306.94 221.75c-9.78-13.05-19.57-26.1-29.36-39.15-3.92 5.22-7.83 10.44-11.75 15.66-5.87-11.74-11.74-23.49-17.62-35.23-5.87 11.74-11.74 23.49-17.61 35.23-3.92-5.22-7.83-10.44-11.75-15.66-9.79 13.05-19.58 26.1-29.36 39.15-0.63 13.99 16.04 24.22 28.24 17.56 8.39-6.12 18.32-1.9 26.68 1.65 9.53 2.76 17.07-6.9 26.55-4.62 8.2 2.67 17.06 8.2 25.63 2.68 6.28-3.28 10.42-10.17 10.35-17.27"/><path id="path25" fill="#fff" d="m196.44 243.01c2.03 9.26 12.17 11.84 20.13 8.13 7.03-4.62 16.49-5.11 23.58-0.24 9.15 5.28 17.56-2.18 26.35-3.47 9.6-0.82 17.73 8.85 27.52 4.04 4.16-2.53 8.51-11.9 0.85-5.98-9.5 5.18-17.82-3.5-27.08-3.75-8.92 0.09-16.57 8.54-25.85 4.21-6.88-4.11-15.87-6.13-23.08-1.59-7.07 4.33-15.67 2.78-22.42-1.34"/><path id="path27" fill="#fff" d="m290.48 258.03c-10.77 13.86-25.65 24.46-42.27 30.1-16.61-5.64-31.49-16.24-42.26-30.1 9.11 2.27 16.17-6.69 25.23-4.83 8.65 2.48 18.05 8.5 26.82 2.46 7.05-4.38 15.91-2.71 22.63 1.43 3.13 1.15 6.56 1.48 9.85 0.95"/></svg>
