<?xml version="1.0" encoding="UTF-8" standalone="no"?>
<svg xmlns="http://www.w3.org/2000/svg" viewBox="0 0 100 100">
  <circle style="fill:#797979;fill-opacity:1;stroke:#000000;stroke-width:0.2;stroke-opacity:1" id="c01" cx="50" cy="50" r="50" />
  <path id="question" style="fill:#ffffff;fill-opacity:1;stroke:none" d="m 39.991992,73.279016 q 0,-4.423671 3.065912,-7.489579 3.109708,-3.109711 7.533379,-3.109711 4.423667,0 7.489579,3.109711 3.109708,3.065908 3.109708,7.489579 0,4.423671 -3.109708,7.533379 -3.065912,3.065908 -7.489579,3.065908 -4.467471,0 -7.533379,-3.065908 -3.065912,-3.065912 -3.065912,-7.533379 z m -4.204677,-31.31608 q -4.073281,0 -6.307014,-2.102338 -2.233734,-2.146138 -2.233734,-6.044224 0,-2.365129 0.96357,-4.730261 1.007373,-2.365129 2.934517,-4.598866 3.284902,-3.985683 8.058963,-6.175616 4.817857,-2.189938 10.292697,-2.189938 9.591918,0 16.424517,5.255846 6.832599,5.212046 6.832599,12.26364 0,2.408928 -0.919773,4.598866 -0.919771,2.146138 -2.671719,3.898086 -2.321333,2.365129 -6.263219,4.642662 -3.941883,2.233734 -4.598862,3.109708 -0.613184,0.788379 -1.138769,2.759322 -0.481785,1.970939 -0.919774,2.584123 -0.832174,1.270164 -2.146134,1.927143 -1.270164,0.613181 -2.978313,0.613181 -3.898086,0 -5.562439,-1.445355 -1.62055,-1.489158 -1.62055,-4.949256 0,-3.854287 3.416298,-9.767112 0.306586,-0.525585 0.481785,-0.832179 1.839548,-3.241103 2.452728,-5.080651 0.656984,-1.883343 0.656984,-3.591492 0,-2.277533 -1.094969,-3.854287 -1.094969,-1.620553 -2.584123,-1.620553 -1.576754,0 -2.233738,1.664353 -0.61318,1.664349 -0.61318,6.39461 0,2.715522 -2.627923,4.993055 -2.584123,2.277533 -6.000425,2.277533 z" />
</svg>
