<?xml version="1.0" encoding="UTF-8" standalone="no"?><svg viewBox="0 0 1002 1002" xmlns="http://www.w3.org/2000/svg"><circle style="fill:#797979;stroke:#000000;stroke-width:1" cx="501" cy="500" r="500"/><path style="fill:#ffffff" d="m 400,733 q 0,-44 30,-74 31,-31 75,-31 44,0 74,31 31,30 31,74 0,44 -31,75 -30,30 -74,30 -44,0 -75,-30 -30,-30 -30,-75 z M 358,420 q -40,0 -63,-21 -22,-21 -22,-60 0,-23 9,-47 10,-23 29,-46 32,-39 80,-61 48,-21 103,-21 96,0 164,52 68,52 68,122 0,24 -9,46 -9,21 -26,39 -23,23 -62,46 -39,22 -46,31 -6,7 -11,27 -4,19 -9,25 -8,12 -21,19 -12,6 -29,6 -39,0 -55,-14 -16,-14 -16,-49 0,-38 34,-97 3,-5 4,-8 18,-32 24,-50 6,-18 6,-35 0,-22 -10,-38 -10,-16 -25,-16 -15,0 -22,16 -6,16 -6,64 0,27 -26,49 -25,22 -60,22 z"/></svg>
