<?xml version="1.0" encoding="UTF-8" standalone="no"?><svg viewBox="0 0 1200 987" preserveAspectRatio="xMidYMid meet" xmlns="http://www.w3.org/2000/svg"><style>path {fill:#000000;} .a {fill:#c60000;stroke:#000000;stroke-width:6;} .b {fill:#92512b;stroke:#000000;stroke-width:14;}</style><path class="a" d="m 1067,613 c 5,4 14,14 20,22 6,7 13,15 16,17 4,3 4,5 3,5 -5,3 -14,-0 -28,-10 -11,-8 -20,-11 -24,-22 -1,-5 -3,-12 -5,-15 -1,-3 -5,-27 -5,-27 0,-2 15,22 24,31 z"/><path class="b" d="m 771,9 c 11,1 20,3 30,8 15,6 20,10 71,56 52,47 74,68 116,109 38,38 52,53 88,94 26,29 39,41 52,46 8,3 11,3 23,-2 11,-5 15,-6 20,-3 7,4 11,14 11,27 0,19 -5,30 -13,30 -4,0 -8,1 -8,3 -0,0 1,5 5,10 3,5 7,12 9,17 l 3,7 1,26 c 0,14 1,28 2,31 0,3 1,7 1,9 0,3 0,4 -3,6 -4,2 -8,7 -10,16 -1,4 -1,10 -2,26 -0,24 0,36 6,62 4,22 3,22 -16,19 -11,-1 -11,-1 -16,0 -2,0 -5,2 -7,3 -5,4 -7,13 -2,22 3,8 3,8 -5,7 -11,-0 -17,-2 -20,-5 -1,-1 -5,-6 -9,-10 -3,-4 -15,-17 -25,-27 -20,-21 -30,-33 -33,-39 -3,-6 -7,-7 -7,-1 0,8 9,34 19,54 11,22 15,29 26,36 12,8 15,12 10,15 -3,1 -11,-0 -22,-5 -17,-8 -26,-15 -48,-40 -12,-14 -20,-21 -28,-25 -4,-2 -5,-2 -21,-1 -20,0 -23,-0 -47,-14 -16,-9 -26,-13 -38,-16 -2,-0 -7,-3 -14,-9 -5,-4 -13,-9 -17,-12 -14,-7 -50,-22 -51,-21 -0,0 -0,2 0,5 1,6 6,9 16,12 19,5 22,6 25,9 6,6 4,13 -7,42 -16,39 -19,52 -24,99 -2,24 -2,24 -5,35 -2,7 -2,9 -2,24 0,12 1,19 3,28 4,21 2,18 23,27 20,8 32,15 39,22 6,5 9,11 9,16 0,4 -3,12 -5,13 -0,0 -1,-2 -2,-6 -2,-12 -9,-23 -15,-25 -5,-1 -5,0 -2,5 6,8 6,9 5,18 -1,9 -2,11 -6,13 -3,1 -25,0 -37,-1 -11,-2 -25,-1 -36,1 -6,1 -8,1 -13,0 -6,-1 -41,-18 -52,-25 -16,-10 -32,-33 -37,-52 -2,-8 -1,-18 2,-43 5,-36 8,-62 12,-142 2,-51 2,-65 -2,-77 -2,-5 -4,-5 -7,-1 -3,4 -3,7 0,16 1,4 3,9 3,11 0,4 -0,24 -5,66 -4,42 -4,42 -5,78 -0,23 -1,34 -3,43 -4,25 -5,31 -5,42 -0,15 1,20 10,39 6,13 6,15 8,26 2,21 5,28 13,35 7,7 15,9 36,12 15,2 21,4 25,9 4,5 6,9 7,16 2,11 -0,28 -3,25 -0,-0 -2,-7 -5,-14 -4,-15 -7,-21 -12,-26 -2,-2 -4,-3 -7,-2 -4,0 -4,0 -4,3 0,3 3,8 6,8 2,0 5,7 6,16 1,9 1,20 0,21 -0,0 -7,-6 -16,-15 -21,-22 -23,-22 -10,2 6,11 8,16 7,17 -0,1 -1,1 -3,-0 -1,-1 -5,-5 -9,-9 -11,-12 -12,-11 -14,5 -0,7 -1,12 -2,13 -0,1 -8,2 -21,4 -26,3 -24,3 -65,-8 -33,-9 -34,-10 -68,-28 -18,-10 -22,-12 -28,-19 -12,-12 -16,-22 -19,-51 -2,-20 -3,-25 -10,-40 -9,-23 -12,-34 -14,-54 -1,-13 -1,-16 -5,-21 -1,-2 -4,-6 -5,-9 -2,-5 -2,-5 -2,-22 0,-9 0,-24 0,-32 0,-9 0,-15 0,-15 -0,0 -2,1 -5,3 -2,1 -5,3 -5,3 -1,0 -1,-9 0,-20 2,-12 2,-20 -0,-23 l -1,-2 -6,3 -6,3 v -2 c 0,-1 -13,-6 -11,-14 3,-12 18,-20 17,-20 -0,0 -3,1 -7,3 -3,1 -7,3 -7,3 -0,0 -0,-3 -0,-7 0,-9 3,-23 10,-44 22,-65 24,-71 24,-88 -0,-12 -4,-33 -7,-31 -0,0 -1,9 -2,20 -2,26 -4,37 -20,87 -11,37 -15,54 -15,70 0,9 1,11 5,11 4,0 5,1 5,11 -0,6 -0,10 -1,12 l -1,3 -2,-4 c -1,-2 -4,-6 -5,-10 -1,-3 -4,-6 -5,-7 -2,-1 -5,1 -9,10 -3,8 -5,10 -7,9 -1,-0 -5,-8 -11,-22 -1,-3 -3,-6 -3,-6 -0,0 -0,2 -0,6 0,6 0,6 -2,9 -1,1 -3,2 -4,2 -3,0 -5,-12 -8,-52 -3,-38 -4,-45 -11,-62 -15,-38 -35,-80 -44,-89 l -4,-4 -1,2 c -1,1 -1,2 -1,3 0,0 4,8 10,16 25,38 38,72 44,120 2,21 4,114 2,119 -1,2 -2,1 -4,-4 -2,-6 -4,-10 -5,-10 -2,0 -6,17 -7,33 -0,12 -1,17 -2,17 -0,0 -2,-5 -5,-12 -2,-6 -4,-12 -5,-13 -2,-1 -3,4 -4,20 -0,9 -1,16 -1,17 -0,0 -1,-0 -3,-2 -3,-3 -5,-3 -7,-0 -0,1 -1,7 -2,13 -1,9 -2,13 -5,20 -7,15 -7,17 -7,33 0,12 0,15 2,21 4,12 13,21 29,30 4,2 10,6 13,9 7,6 9,11 9,20 0,6 -0,6 -4,11 -2,2 -4,4 -5,4 -1,0 -2,-4 -4,-13 -6,-4 -15,-0 -22,-7 -9,-10 -7,-23 0,0 3,9 12,12 13,19 0,0 3,7 0,9 -1,0 -4,-4 -4,-4 -3,-2 -5,-4 -6,-3 -0,0 -4,4 -8,9 -9,12 5,17 -12,6 -0,-0 0,-6 -0,-13 -1,-7 -10,-9 -11,-12 -2,-5 -10,-15 -12,-15 -0,0 -1,0 -1,0 0,0 0,7 2,15 1,11 1,16 1,20 -0,2 -1,5 -1,5 -0,0 -2,-1 -5,-4 -5,-5 -5,-5 -12,5 -2,4 -5,7 -5,7 -0,0 -2,-1 -3,-3 -1,-2 -3,-4 -3,-4 -0,-0 -3,0 -6,2 -9,5 -11,4 -18,-4 -3,-4 -7,-9 -10,-11 -11,-8 -36,-17 -62,-23 -16,-3 -20,-5 -25,-10 -8,-9 -11,-21 -11,-44 0,-30 4,-60 17,-103 l 4,-14 v -21 c 0,-20 -0,-22 -2,-31 -4,-16 -10,-30 -36,-82 -26,-52 -29,-61 -35,-85 -4,-22 -6,-34 -6,-64 0,-25 0,-29 2,-43 1,-8 2,-16 2,-18 0,-2 -0,-2 -6,-1 l -3,0 v -6 c 0,-3 -0,-6 -0,-7 -0,-0 -3,1 -7,4 -10,8 -11,6 -11,-24 0,-20 0,-23 2,-35 12,-58 43,-120 84,-167 15,-17 30,-29 65,-47 11,-6 28,-15 39,-22 32,-18 33,-18 67,-23 36,-5 54,-6 100,-6 30,0 36,0 45,2 14,2 32,7 56,15 28,9 29,9 61,10 42,0 47,0 110,-18 73,-21 98,-25 127,-21 z"/><path class="b" d="m 432,655 c 0,2 0,10 0,16 0,15 10,5 15,6 l -6,11 -0,8 c -0,4 -0,14 -0,22 -0,15 0,18 6,27 5,9 5,10 8,27 1,8 2,19 4,24 1,8 3,12 10,32 2,6 3,12 4,17 l 0,7 -2,0 c -3,0 -53,-0 -62,-1 -9,-1 -23,-5 -26,-7 -2,-1 -2,-2 -2,-8 -0,-8 1,-23 4,-37 2,-10 5,-19 13,-40 5,-13 6,-24 5,-46 -1,-18 -3,-31 -6,-43 -1,-4 -2,-9 -3,-10 -0,-2 2,-27 4,-27 0,0 11,10 15,14 3,3 2,15 3,15 0,0 2,-1 4,-4 8,-11 19,-37 9,-11 -0,0 1,3 1,6 z"/><path d="m 941,256 c -11,2 -24,11 -29,22 -7,14 -10,36 -5,46 5,11 21,24 30,25 3,0 5,0 6,-1 2,-3 0,-5 -8,-11 -9,-5 -15,-10 -18,-15 -4,-8 -3,-20 1,-32 4,-11 8,-16 13,-19 6,-3 15,-5 21,-5 9,0 24,6 32,15 4,5 5,6 8,14 1,5 6,12 9,12 0,0 0,-3 0,-7 -0,-6 -1,-9 -3,-14 -5,-12 -18,-22 -31,-27 -7,-2 -20,-3 -27,-2 z"/><path d="m 955,290 c -2,2 -3,2 -10,3 l -8,0 -1,4 c -1,3 -1,6 -1,14 0,9 0,10 2,15 1,2 4,7 6,9 4,4 7,6 12,3 2,-1 2,-2 -2,-7 -7,-8 -7,-9 -8,-13 -1,-5 -0,-14 1,-14 0,0 3,0 5,2 5,2 11,2 16,0 2,-0 4,-1 5,-1 2,0 1,5 -1,16 -2,8 -2,9 -1,10 3,3 12,-6 13,-14 0,-5 -1,-19 -4,-24 -1,-2 -2,-3 -7,-3 -4,0 -6,-0 -8,-1 -3,-2 -4,-2 -7,1 z"/><path d="m 1100,324 c -3,3 -2,5 3,7 2,1 6,3 9,6 9,8 13,17 19,43 2,9 6,23 8,31 l 4,14 v 21 c 0,11 -0,21 -0,21 -0,0 -2,-1 -4,-3 -2,-2 -6,-4 -11,-6 -4,-1 -7,-2 -7,-2 -0,0 1,2 3,5 11,16 12,27 1,47 -5,10 -5,11 3,5 6,-4 9,-9 12,-18 3,-10 3,-10 6,-10 2,-0 2,-1 4,-6 1,-4 2,-10 2,-28 0,-22 0,-22 -2,-32 -1,-5 -5,-19 -8,-31 -3,-12 -7,-26 -9,-31 -5,-14 -16,-29 -24,-33 -6,-2 -8,-2 -11,-0 z"/><path d="m 1060,479 c -7,1 -11,2 -11,5 0,2 6,15 9,19 3,4 8,5 18,5 l 8,-0 5,5 c 3,2 6,5 7,5 2,0 3,-5 3,-18 v -10 l -3,-3 c -5,-5 -10,-7 -22,-8 -5,-0 -12,0 -15,0 z"/><path style="fill:#006823" d="m 1065,491 c -2,1 -2,1 -1,4 1,2 6,4 12,4 4,0 5,-0 8,-3 2,-2 3,-3 2,-4 -1,-1 -19,-2 -22,-1 z"/></svg>
