<?xml version="1.0" encoding="UTF-8" standalone="no"?>
<svg xmlns="http://www.w3.org/2000/svg" viewBox="0 0 1199.922558 986.078209" preserveAspectRatio="xMidYMid meet">
  <path style="fill:#000000;stroke:none;stroke-width:0.1" d="m 722.83072,2.16212 c -12.5,2.7 -32.6,8.1 -62.5,16.6 -45,12.9 -59.2,15.6 -89.2,17.1 -25.7,1.3 -53.3,0 -73.8,-3.5 -8,-1.3 -34.7,-6.8 -59.5,-12.1 -54.8,-11.7 -59.8,-12.5 -80,-12.5 -23.8,0 -41.4,1.9 -88.5,9.6 -16.3,2.7 -23.6,4.3 -30,6.9 -4.7,1.9 -12.2,4.3 -16.7,5.5 -9.3,2.5 -19.9,7.6 -41.8,20.1 -8.2,4.7 -19.6,11.2 -25.2,14.3 -46.9,26.1 -80.600001,60.3 -108.400001,110.1 -17.4,31.3 -35.5,76.3 -42.4,105.8 -3.9,16.8 -4.9,25.4 -4.8,42.2 0,17.6 1.3,26.9 6.4,45.2 l 3.1,11.3 5.3,-0.6 5.2,-0.6 0.6,6.2 c 0.4,3.5 0.7,11.7 0.7,18.4 0.1,32.9 5.5,80.1 12.5,107.6 6.4,25.2 14,41.8 36.4,79.4 28.8,48.3 34.100001,62 34.100001,88.5 0,12.3 -1.4,22 -6.900001,46.2 -4.9,21.9 -9.2,43.4 -13.2,67.1 -2.7,15.5 -3.1,20.7 -3,33.8 0.1,27.2 3.4,40.8 12.3,50.5 6.500001,7.1 13.600001,10.5 30.800001,14.5 44.8,10.6 47.2,11.7 68,30.4 11.5,10.3 14.7,11.8 25.1,11.5 8,-0.2 8.1,-0.2 10.6,2.9 3.7,4.8 6.2,4.2 14.4,-3.5 l 7.1,-6.7 3,3.7 c 3.7,4.5 6.1,4.7 11,0.7 l 3.7,-3.1 0.7,2.6 c 0.7,3 5.3,6.5 8.4,6.5 4.8,0 10.2,-2.5 17.7,-8.2 4.3,-3.3 8.3,-6.2 8.9,-6.4 0.5,-0.3 3.6,2.1 6.6,5.1 6.7,6.7 8,6.5 12.4,-1.5 2.2,-4.1 3.4,-5.2 6.4,-6 4.8,-1.3 13.6,-9.9 16.4,-15.9 1.8,-3.9 2.1,-6.4 2,-16.1 0,-9.6 -0.4,-12.5 -2.4,-17.5 -3.4,-8.7 -10.4,-15.3 -20,-19 -11.3,-4.2 -14.9,-6.2 -20.6,-11.7 -7.9,-7.4 -9.9,-12.8 -9.8,-26.3 0,-11 2.3,-23.3 8.6,-46.8 1.9,-7.2 2.3,-7.8 4.2,-7.2 5.9,1.9 6.4,1.8 8,-1.3 0.9,-1.7 2.1,-5.4 2.7,-8.2 0.9,-4.4 1.4,-5 3.5,-5 6.7,0 11.4,-5.4 19.4,-22.3 9.5,-19.8 16.1,-41.8 17.6,-57.9 l 0.6,-7.7 5.5,-1.2 c 8.4,-1.9 10,-0.9 15.1,9.1 8.1,16.2 11.5,36 11.6,67.5 0.1,23.6 0.4,22 -10.3,55.7 -8,24.9 -10.3,35 -10.9,47.5 -0.3,7.6 -0.1,12.7 0.8,15.8 3.5,12.7 19.1,16.6 74,18.6 16.2,0.6 30.5,1.2 31.6,1.5 1.7,0.3 2.3,1.4 2.9,5.1 0.9,6.9 6.8,23.9 11.1,32.5 9.4,18.7 17,26.2 34.1,33.7 6.5,2.9 21.5,10.3 33.3,16.6 11.8,6.3 23.5,12.3 26,13.4 6.1,2.7 19.7,6.1 44.1,11.2 21.9,4.6 24,4.7 60.2,3.7 12.3,-0.3 12.9,-0.4 14.8,-2.8 2.2,-2.8 4.9,-11.1 4.9,-14.9 0,-5.5 1.5,-5.8 6.3,-1.4 5.6,5.2 8.4,5.8 26.7,5.8 h 14.5 l 7,-4.7 c 3.9,-2.5 8.3,-5.9 9.8,-7.5 6.9,-7.4 8.8,-22.8 4.3,-35.5 -4.2,-11.9 -14.5,-24.1 -24.2,-28.8 -2.3,-1.2 -11.4,-3.9 -20.2,-6 -16.6,-4.1 -26.1,-7.6 -29.8,-11.1 -3.3,-3.1 -8.3,-14.8 -9.9,-23.4 -1.7,-8.6 -2,-18.5 -0.6,-18.5 0.5,0 2.3,2.2 4.1,4.9 3.5,5.6 15,16.9 20.8,20.4 10.1,6.3 19.4,8.1 51.4,10.2 25.4,1.6 34.9,2.5 53.3,5 6.1,0.8 17.5,1.5 25.5,1.5 20.6,0 29.2,-2.3 38.9,-10.4 2.4,-2 5.4,-3.6 6.7,-3.6 4,0 8.8,-2.5 10.3,-5.3 1,-1.8 1.2,-5 0.9,-10.9 -0.7,-13.4 -7.4,-25.6 -17.2,-31.3 -3.2,-1.9 -7.1,-2.7 -18.5,-4 -8.1,-0.9 -17.9,-2.7 -22.2,-4.1 -13.9,-4.4 -24.3,-13.3 -30.1,-25.9 -2.1,-4.7 -2.3,-6.3 -2.2,-23.5 0,-15.4 0.5,-21.1 2.7,-34 1.5,-8.5 4.1,-27.7 5.7,-42.5 3.8,-33.3 4.4,-37.3 8,-51.1 5.4,-20.9 14,-40.8 24.6,-57.2 2.9,-4.5 6,-8.2 6.8,-8.2 0.8,0 3.3,1.6 5.7,3.6 5.7,4.7 7.6,5.6 19.9,9.4 6.1,1.9 19.1,7.4 31,13.2 28.2,13.7 28.4,13.8 47.7,14.8 10.9,0.6 17.2,1.4 19,2.4 3.9,2.1 13.2,10.4 41.69998,37.9 26.4,25.3 31.6,29.4 41,32.7 10.7,3.6 14.3,2.7 43.3,-10.9 l 17.2,-8 18.3,-2.1 c 20.7,-2.4 29.1,-4.1 34.7,-7 13.1,-6.6 17,-26.2 8.9,-44.7 -4.2,-9.5 -4.3,-10.4 -6.3,-51.3 -1.9,-38 -2.1,-34.5 1.4,-36 6.9,-2.8 14.1,-13.2 15.6,-22.5 0.3,-2.3 -0.1,-6.9 -1,-11 -0.8,-3.9 -2.2,-9.9 -3,-13.5 -0.8,-3.6 -2.1,-17.5 -3,-31 -1.7,-25.8 -2.9,-34.1 -7,-46 l -2.4,-7.2 3.8,-4.7 c 7.8,-9.3 11.1,-19.1 11.1,-32.9 0,-15.4 -4.2,-27.4 -12.3,-35.6 -10.6,-10.5 -20,-10.8 -41.4,-1.5 -6.5,2.8 -5.9,3.1 -23.1,-11.1 -19.2,-16 -53.7,-49.5 -86.1,-83.6 -40.59998,-42.7 -95.79998,-97.6 -115.09998,-114.4 -9.1,-7.9 -31.1,-28.8 -49,-46.5 -39,-38.6 -45.9,-44.1 -64.5,-51.6 -17.4,-6.9 -18.6,-7.1 -47,-7.5 -24.4,-0.4 -26.7,-0.2 -37,2 z" id="path889" />
  <path style="fill:#92512b;stroke:none;stroke-width:0.1;fill-opacity:1" d="m 771.33072,9.76212 c 11.9,1.5 20.1,3.7 30.3,8.1 15.9,6.9 20.5,10.5 71.7,56.9 52,47.1 74.6,68.5 116.1,109.9 38.89998,38.9 52.39998,53.2 88.99998,94.1 26.8,29.9 39.6,41.2 52.9,46.7 8.1,3.3 11.1,3 23,-2.7 11.6,-5.5 15.7,-6.1 20.8,-3 7,4.3 11.2,14.7 11.2,27.8 0,19 -5.1,30.2 -13.7,30.2 -4.2,0 -8.2,1.6 -8.9,3.5 -0.4,0.9 1.8,5.2 5.4,10.8 3.4,5 7.7,12.7 9.7,17 l 3.6,7.8 1,26.2 c 0.5,14.4 1.4,28.7 2.1,31.7 0.6,3 1.3,7.3 1.5,9.5 0.4,3.8 0.2,4.1 -3.6,6.3 -4.5,2.5 -8,7.9 -10.7,16.2 -1.3,4.2 -1.8,10.5 -2.1,26.6 -0.6,24.1 0.6,36.4 6.1,62.9 4.6,22 3.9,22.8 -16.5,19.8 -11,-1.6 -11.9,-1.6 -16.2,0.1 -2.5,0.9 -5.8,2.7 -7.3,3.8 -5.8,4.6 -7,13.8 -2.9,22.6 3.9,8.4 3.8,8.6 -5.2,7.9 -11,-0.8 -17.8,-2.5 -20.5,-5.1 -1.3,-1.2 -5.3,-6 -9,-10.7 -3.6,-4.6 -15.1,-17.2 -25.3,-27.9 -20.3,-21.1 -30.4,-33.1 -33.6,-39.8 -3.4,-6.9 -7.9,-7.6 -7.9,-1.2 0,8.4 9,34.4 19,54.8 11.2,22.9 15.7,29.2 26.5,36.4 12,8.1 15.1,12.7 10,15 -3.5,1.6 -11.8,-0.3 -22.1,-5.1 -17.6,-8.3 -26.1,-15.5 -48.1,-40.7 -12.9,-14.8 -20.79998,-21.9 -28.29998,-25.7 -4.2,-2 -5.6,-2.2 -21,-1.9 -20.9,0.3 -23.6,-0.5 -47.9,-14.2 -16.8,-9.6 -26.4,-13.7 -38.8,-16.6 -2.8,-0.7 -7.3,-3.6 -14,-9 -5.4,-4.4 -13.4,-9.9 -17.7,-12.2 -14.3,-7.4 -50.1,-22.7 -51,-21.8 -0.5,0.5 -0.4,2.8 0.4,5.5 1.8,6.5 6,9.7 16.1,12.4 19.2,5.1 22.3,6.3 25.6,9.6 6,6 4.7,13.3 -7.6,42.4 -16.7,39.3 -19.8,52 -24.1,99 -2.3,24.7 -2.2,24.1 -5.7,35.8 -2.4,7.8 -2.5,9.3 -2,24.5 0.3,12.3 1.1,19.3 3,28.3 4.5,21 2.5,18.6 23.5,27.6 20.7,8.8 32.1,15.2 39.9,22.3 6.5,5.9 9.3,11 9.3,16.9 0,4.3 -3.5,12.7 -5.6,13.4 -0.5,0.2 -1.5,-2.6 -2.1,-6.1 -2.1,-12.2 -9.2,-23.8 -15.4,-25.1 -5.1,-1.1 -5.8,0.8 -2.1,5.7 6.2,8.2 6.7,9.8 5.4,18.7 -1.3,9.1 -2.5,11.6 -6.4,13.2 -3.8,1.6 -25.4,0.6 -37.8,-1.6 -11.4,-2.1 -25.9,-1.6 -36.8,1.1 -6.2,1.5 -8.1,1.6 -13,0.6 -6.3,-1.3 -41.5,-18.4 -52.2,-25.3 -16,-10.3 -32.5,-33.5 -37.5,-52.9 -2.3,-8.8 -1.8,-18.6 2,-43.1 5.7,-36.3 8,-62.4 12.5,-142.9 2.9,-51.2 2.4,-65.9 -2.3,-77.3 -2.2,-5.2 -4.4,-5.7 -7.9,-1.9 -3.6,4.2 -3.6,7.4 0.2,16.9 1.7,4.1 3.3,9.1 3.6,11.2 0.8,4.7 -0.8,24.8 -5.1,66.1 -4.4,42.2 -4.4,42.1 -5.6,78.9 -0.7,23.2 -1.5,34.5 -3,43 -4.5,25.6 -5.2,31.1 -5.2,42.6 -0.1,15.2 1.3,20.6 10.3,39.5 6.4,13.7 6.9,15.2 8.4,26.5 2.8,21.1 5.6,28.7 13.5,35.8 7.8,7 15.2,9.6 36.6,12.7 15.7,2.3 21,4.4 25.3,9.8 4.4,5.6 6,9.2 7.3,16.7 2,11.6 -0.1,28.9 -3.2,25.8 -0.5,-0.5 -2.8,-7 -5,-14.4 -4.6,-15.2 -7.8,-21.7 -12.7,-26 -2.8,-2.5 -4.1,-3 -7.5,-2.7 -4.1,0.3 -4.2,0.4 -4,3.8 0.2,3.6 3.9,8 6.8,8 2.4,0 5.4,7.3 6.5,16.1 1.1,9.3 1.3,20.2 0.4,21.2 -0.4,0.3 -7.9,-6.8 -16.8,-15.9 -21.9,-22.3 -23.1,-22 -10.5,2.5 6.2,11.9 8,16.2 7.2,17.4 -0.8,1.6 -1.2,1.5 -3.8,-0.5 -1.7,-1.3 -5.9,-5.4 -9.5,-9.1 -11.5,-12.1 -12.7,-11.6 -14.2,5.9 -0.7,7.3 -1.6,12.5 -2.4,13.3 -0.9,1 -8.1,2.4 -21.7,4.2 -26.2,3.4 -24.9,3.6 -65.7,-8.1 -33.5,-9.6 -34.8,-10.2 -68.5,-28.8 -18.3,-10.2 -22,-12.6 -28.6,-19.2 -12.4,-12.3 -16.3,-22.2 -19.8,-51 -2.5,-20.2 -3.7,-25 -10.5,-40.9 -9.7,-23 -12.8,-34.7 -14.6,-54.8 -1.3,-13.8 -1.9,-16 -5.9,-21 -1.6,-2.1 -4.2,-6.3 -5.8,-9.3 -2.8,-5.4 -2.8,-5.8 -2.8,-22.5 0.1,-9.4 0.5,-24.1 0.9,-32.8 0.5,-9.3 0.5,-15.7 0,-15.7 -0.5,0 -2.9,1.4 -5.4,3 -2.5,1.6 -5.1,3 -5.7,3 -1.8,0 -1.7,-9.2 0.2,-20.5 2,-12.5 2,-20.7 -0.3,-23.5 l -1.7,-2.1 -6.8,3 -6.7,3 v -2.7 c 0,-1.5 1.6,-8.7 3.5,-16.1 3.3,-12.9 4.2,-18.1 2.9,-18.1 -0.3,0 -3.6,1.4 -7.4,3 -3.8,1.7 -7.1,3 -7.4,3 -0.3,0 -0.6,-3.5 -0.6,-7.8 0,-9.7 3.3,-23.4 10.6,-44.6 22.9,-65.7 24.4,-71.4 24.4,-88.6 -0.1,-12.8 -4.7,-33.7 -7,-31.4 -0.5,0.5 -1.6,9.6 -2.4,20.2 -2.2,26.9 -4.7,37.7 -20.7,87.1 -11.9,37.1 -15.9,54.5 -15.9,70.2 0,9.4 1.1,11.9 5.3,11.9 4.6,0 5.2,1.3 5.2,11.2 -0.1,6.6 -0.5,10.2 -1.7,12.2 l -1.5,3 -2.5,-4 c -1.4,-2.1 -4,-6.7 -5.8,-10.2 -1.8,-3.5 -4.1,-6.7 -5.1,-7.2 -2.8,-1.5 -5.6,1.7 -9.2,10.4 -3.3,8 -5.3,10.4 -7.9,9.3 -1.5,-0.5 -5.8,-8.7 -11.7,-22 -1.6,-3.7 -3.4,-6.7 -3.9,-6.7 -0.6,0 -0.8,2.7 -0.5,6.3 0.5,6.1 0.5,6.4 -2.7,9 -1.7,1.5 -3.8,2.7 -4.6,2.7 -3.5,0 -5.7,-12.8 -8.9,-52 -3.1,-38.3 -4.4,-45.4 -11,-62.5 -15.1,-38.8 -35.6,-80.4 -44.3,-89.5 l -4.4,-4.5 -1.9,2.4 c -1,1.3 -1.9,2.9 -1.9,3.6 0,0.7 4.7,8.3 10.4,16.9 25.7,38.4 38.2,72.8 44.1,120.8 2.6,21.2 4.8,114.1 2.9,119.2 -1.1,2.8 -2.2,1.7 -4.4,-4.1 -2.4,-6.4 -4.6,-10.3 -5.9,-10.3 -2.6,0 -6.4,17 -7.5,33.5 -0.9,12.9 -1.6,17.5 -2.6,17.5 -0.4,0 -2.7,-5.6 -5,-12.5 -2.3,-6.9 -4.6,-12.7 -5,-13 -2,-1.2 -3.2,4.6 -4.2,20.3 -0.6,9.2 -1.2,16.9 -1.4,17.1 -0.3,0.3 -1.7,-0.8 -3.2,-2.2 -3.3,-3.1 -5.7,-3.4 -7.1,-0.9 -0.5,1 -1.7,7.2 -2.6,13.8 -1.3,9.4 -2.5,13.7 -5.5,20.5 -7,15.5 -7.5,17.9 -7.5,33.9 0,12.6 0.3,15.4 2.3,21.3 4.4,12.7 13,21.7 29.5,30.8 4.3,2.4 10.2,6.5 13.2,9.1 7,6.3 9.5,11.5 9.5,20.1 0,6.5 -0.1,6.8 -4.3,11.2 -2.4,2.5 -4.8,4.5 -5.5,4.5 -1.3,0 -2.6,-4 -4.6,-13.6 -2.5,-12.1 -5.2,-17.6 -11.7,-24.8 -9.2,-10 -9.3,-9 -1.7,14.4 3.2,9.7 4.2,14.5 4.6,21.5 l 0.4,9 -4.4,-4.3 c -3.1,-2.9 -5,-4.1 -6.1,-3.6 -0.9,0.3 -4.8,4.8 -8.6,9.8 -9.1,12.3 -14.6,16.8 -16.5,13.7 -0.3,-0.5 -1.7,-7 -3.1,-14.4 -1.4,-7.5 -3.4,-16.1 -4.6,-19.1 -2.1,-5.7 -10,-15.6 -12.5,-15.6 -0.8,0 -1.4,0.1 -1.4,0.2 0,0.2 0.9,7.1 2,15.5 1.5,11.7 1.7,16.4 1,20.4 -0.6,2.9 -1.2,5.4 -1.4,5.7 -0.3,0.2 -2.5,-1.7 -5.1,-4.3 -5.4,-5.6 -5.3,-5.6 -12.6,5.2 -2.8,4 -5.4,7.3 -5.9,7.3 -0.5,0 -2.1,-1.7 -3.6,-3.7 -1.6,-2.1 -3.1,-4.2 -3.4,-4.6 -0.4,-0.4 -3.3,0.8 -6.6,2.8 -9.1,5.5 -11.4,4.9 -18.6,-4.6 -3.1,-4.2 -7.9,-9.2 -10.5,-11.2 -11.5,-8.4 -36.5,-17.9 -62.8,-23.7 -16.8,-3.7 -20.9,-5.5 -25.4,-10.5 -8.000001,-9.1 -11.100001,-21.5 -11.100001,-44.2 0,-30.5 4.9,-60.4 17.000001,-103.6 l 4,-14.4 v -21.9 c 0,-20.3 -0.2,-22.7 -2.6,-31.9 -4.1,-16.3 -10.4,-30.3 -36.500001,-82.6 -26.2,-52.7 -29.9,-61.6 -35.3,-85.9 -4.9,-22.4 -6.1,-34.3 -6,-64.5 0,-25.9 0.2,-29.2 2.7,-43.8 1.5,-8.7 2.7,-16.9 2.7,-18.2 0,-2.7 -0.6,-2.9 -6.2,-1.6 l -3.8,0.9 v -6.3 c 0,-3.5 -0.4,-6.6 -0.9,-7 -0.5,-0.3 -3.7,1.7 -7.1,4.4 -10.5,8.4 -11.5,6.1 -11.4,-24.9 0.1,-20.1 0.4,-23.8 2.7,-35 12.2,-58.7 43.2,-120.5 84.1,-167.9 15.200001,-17.5 30.800001,-29.1 65.100001,-47.9 11,-6 28.9,-15.9 39.7,-22 32.5,-18.1 33.4,-18.4 67.9,-23.7 36.4,-5.7 54.5,-6.8 100.8,-6.2 30.1,0.3 36,0.7 45.6,2.5 14.6,2.9 32.7,7.9 56.4,15.7 28.8,9.5 29.4,9.6 61.4,10.2 42.3,0.8 47.4,0 110.2,-18 73.4,-21.1 98,-25.3 127.5,-21.7 z" id="path887" />
  <path style="fill:#000000;stroke:none;stroke-width:0.1" d="m 1187.3307,500.86212 c -0.7,1.1 -1.4,1.9 -1.6,1.6 -0.7,-0.7 0.7,-3.7 1.7,-3.7 0.6,0 0.5,0.9 -0.1,2.1 z" id="path885" />
  <path style="fill:#c60000;stroke:none;stroke-width:0.1;fill-opacity:1" d="m 1067.1307,613.26212 c 5.2,4.9 14.4,14.8 20.4,22 6.1,7.1 13.3,15.2 16.1,17.8 4.2,3.9 4.9,5 3.7,5.7 -5,3.2 -14.8,-0.6 -28.7,-10.9 -11.8,-8.8 -15.2,-13.1 -19.1,-24.2 -1.9,-5.2 -4.9,-12.2 -6.8,-15.6 -1.9,-3.4 -3.4,-6.6 -3.4,-7.3 0,-2.3 8.6,3.7 17.8,12.5 z" id="path883" />
  <path style="fill:#000000;stroke:none;stroke-width:0.1" d="m 1154.6307,628.46212 c 1.1,1.1 -1.4,3.3 -3.8,3.3 -3.4,0 -5.5,-1 -5.5,-2.6 0,-1 1.3,-1.4 4.3,-1.4 2.4,0 4.7,0.3 5,0.7 z" id="path881" />
  <path style="fill:#92512b;stroke:none;stroke-width:0.1;fill-opacity:1" d="m 432.43072,655.96212 c 0.4,2.9 0.8,10.5 0.9,16.8 0.3,15 0.6,16.3 5.3,17.4 l 3.8,1 -0.7,8.5 c -0.4,4.7 -0.8,14.7 -0.8,22.1 -0.1,15.1 0.6,18.1 6.3,27.5 5.5,9 5.9,10.3 8.1,27.3 1.2,8.6 2.9,19.5 4,24.2 1.8,8.3 3.1,12.3 10.5,32.5 2.4,6.5 3.9,12.5 4.2,17.2 l 0.6,7.2 -2.8,0.7 c -3.7,0.9 -53,-0.4 -62.2,-1.7 -9.5,-1.3 -23,-5.3 -26.2,-7.7 -2.2,-1.6 -2.6,-2.8 -2.9,-8.3 -0.4,-8.3 1.3,-23.5 4.3,-37.4 2.3,-10.8 5.1,-19.2 13.4,-40.7 5.3,-13.7 6.4,-24.1 5.1,-46.4 -1.1,-18 -3.2,-31.3 -6.7,-43.4 -1.4,-4.7 -2.8,-9.4 -3,-10.6 -0.6,-2.6 4.6,-11.4 6.7,-11.4 0.9,0 4.7,3.1 8.5,7 3.8,3.8 7.5,7 8.2,7 0.6,0 2.4,-1.8 4,-4.1 8.3,-11.9 8.5,-12.1 9.6,-11 0.6,0.6 1.4,3.4 1.8,6.3 z" id="path879" />
  <path style="fill:#000000;stroke:none;stroke-width:0.1" d="m 883.63072,829.46212 c 3.2,3.5 6.4,10.5 7.3,16.3 0.9,6 -0.6,4.3 -4,-4.8 -1.6,-4 -3.9,-8.6 -5.2,-10.1 -4,-4.8 -2.5,-5.9 1.9,-1.4 z" id="path877" />
  <path style="fill:#000000;stroke:none;stroke-width:0.1" d="m 941.53072,256.76212 c -11.9,2.5 -24,11.7 -29.4,22.4 -7.4,14.7 -10,36.4 -5.4,46.1 5.1,11 21.2,24.4 30.3,25.2 3.6,0.4 5.2,0.1 6.2,-1 2.7,-3.4 0.9,-5.8 -8.3,-11 -9.3,-5.2 -15.4,-10.5 -18.1,-15.7 -4.2,-8.1 -3.6,-20.1 1.5,-32.4 4.8,-11.4 8.2,-16.2 13.8,-19 6.2,-3.1 15.7,-5.6 21.6,-5.6 9.7,0 24.3,6.9 32.2,15.2 4.9,5.1 5.8,6.7 8.4,14.9 1.7,5.7 6.89998,12.9 9.29998,12.9 0.5,0 0.8,-3.5 0.6,-7.8 -0.3,-6.2 -1,-9 -3.6,-14.2 -5.89998,-12 -18.59998,-22.9 -31.89998,-27.5 -7.8,-2.7 -20.6,-3.9 -27.2,-2.5 z" id="path875" />
  <path style="fill:#000000;stroke:none;stroke-width:0.1" d="m 955.73072,290.46212 c -2.2,2.4 -3.3,2.7 -10.8,3.1 l -8.4,0.4 -1.9,4.1 c -1.4,3.1 -1.8,6.6 -1.8,14.2 0,9.1 0.3,10.5 2.8,15 1.5,2.8 4.6,7.2 6.8,9.8 4.2,4.9 7.6,6 12,3.7 2.7,-1.5 2.4,-2.5 -2.4,-7.8 -7.4,-8.2 -7.9,-9 -8.8,-13.9 -1.1,-5.8 -0.1,-14.3 1.6,-14.3 0.7,0 3.2,0.9 5.6,2 5.3,2.4 11.1,2.5 16.9,0.5 2.3,-0.8 4.9,-1.5 5.6,-1.5 2.1,0 1.7,5.1 -1.1,16 -2,8 -2.2,9.7 -1.1,10.9 3.4,3.3 12.1,-6 13.2,-14.1 0.8,-5.4 -1.9,-19.9 -4.5,-24.3 -1.6,-2.8 -2.1,-3 -7.7,-3 -4,0 -6.7,-0.6 -8.4,-1.8 -3.3,-2.3 -4.7,-2.2 -7.6,1 z" id="path873" />
  <path style="fill:#000000;stroke:none;stroke-width:0.1" d="m 1100.7307,324.06212 c -3.6,3.1 -2.7,5.2 3.2,7.9 2.6,1.1 6.6,3.8 9,6 9,8.3 13.3,17.9 19.5,43.7 2.2,9 6,23 8.5,31.1 l 4.4,14.7 v 21.7 c 0,11.9 -0.3,21.6 -0.6,21.6 -0.4,0 -2.3,-1.7 -4.3,-3.8 -2.5,-2.6 -6.1,-4.7 -11,-6.5 -4,-1.5 -7.5,-2.7 -7.8,-2.7 -0.2,0 1.2,2.3 3.2,5.2 11.7,16.3 12.1,27.7 1.4,47.5 -5.8,10.7 -5.1,11.8 3.6,5.9 6.3,-4.2 9.8,-9.1 12.9,-18.1 3.5,-10.3 3.6,-10.4 6.4,-10.7 2.3,-0.3 2.9,-1.2 4.5,-6.3 1.6,-4.9 2.1,-10 2.4,-28.6 0.5,-22.3 0.5,-22.7 -2.2,-32 -1.5,-5.2 -5.3,-19.5 -8.5,-31.9 -3.2,-12.4 -7.3,-26.5 -9,-31.3 -5.3,-14.4 -16.2,-29.3 -24.3,-33 -6.2,-2.8 -8.4,-2.9 -11.3,-0.4 z" id="path871" />
  <path style="fill:#000000;stroke:none;stroke-width:0.1" d="m 1060.5307,479.76212 c -7.8,1.2 -11.2,2.8 -11.2,5.4 0,2.9 6,15.3 9.4,19.3 3.7,4.4 8.2,5.6 18.3,5.1 l 8.4,-0.4 5.8,5.3 c 3.3,2.9 6.6,5.3 7.5,5.3 2.1,0 3.1,-5.5 3.1,-18.2 v -10.7 l -3.5,-3.7 c -5.5,-5.7 -10.7,-7.6 -22.4,-8 -5.6,-0.1 -12.5,0.1 -15.4,0.6 z" id="path869" />
  <path style="fill:#000000;stroke:none;stroke-width:0.1" d="m 1084.3307,485.56212 c 4.1,2.2 11,11.5 11,14.9 0,2.3 -0.2,2.3 -9.7,2.2 -15.2,-0.1 -20.8,-1.1 -23.2,-3.9 -2.8,-3.4 -4.3,-8.8 -3,-11.1 2.1,-4 18.7,-5.4 24.9,-2.1 z" id="path867" />
  <path style="fill:#006823;stroke:none;stroke-width:0.1;fill-opacity:1" d="m 1065.6307,491.76212 c -2.6,1.1 -2.7,1.4 -1.3,4.1 1.6,2.9 6.4,4.9 12,4.9 4.3,0 5.5,-0.5 8.8,-3.4 2.6,-2.5 3.4,-3.8 2.6,-4.6 -1.4,-1.4 -19.3,-2.3 -22.1,-1 z" id="path865" />
</svg>