<?xml version="1.0" encoding="UTF-8" standalone="no"?><svg viewBox="0 0 1000 1000" width="1000" height="1000" xmlns="http://www.w3.org/2000/svg"><style id="style2">path {fill:#000080;stroke:#000000;stroke-width:2} .a {stroke:#ffffff} .b {fill:#f4f4f4} .c {fill:none} .d {stroke-width:0}</style><path d="m 851,146 a 498,498 0 0 1 146,352 v 0 0 A 498,498 0 0 1 499,998 498,498 0 0 1 146,851"/><path d="M 146,851 A 498,498 0 0 1 0,499 498,498 0 0 1 499,0 498,498 0 0 1 851,146"/><path class="a" d="M 781,216 A 399,399 0 0 1 898,499 v 0 0 A 399,399 0 0 1 499,898 399,399 0 0 1 216,781"/><path class="a b" d="m 710,287 a 299,299 0 0 1 87,211 v 0 0 A 299,299 0 0 1 499,798 299,299 0 0 1 287,710"/><path class="a c" d="M 287,710 A 299,299 0 0 1 199,499 299,299 0 0 1 499,199 299,299 0 0 1 710,287"/><path class="b" d="m 640,357 a 199,199 0 0 1 58,141 v 0 0 A 199,199 0 0 1 499,698 199,199 0 0 1 357,640"/><path d="m 569,428 a 99,99 0 0 1 29,70 v 0 a 99,99 0 0 1 -99,99 99,99 0 0 1 -70,-29"/><path class="b" d="m 428,569 a 99,99 0 0 1 -29,-70 99,99 0 0 1 99,-99 99,99 0 0 1 70,29"/><path class="a" d="m 534,463 a 49,49 0 0 1 14,35 v 0 a 49,49 0 0 1 -49,49 49,49 0 0 1 -35,-14"/><path class="b" d="m 463,534 a 49,49 0 0 1 -14,-35 49,49 0 0 1 49,-49 49,49 0 0 1 35,14"/><path class="d" d="m 495,502 -17,-17 7,-7 v 0 l 17,17"/><path class="b d" d="m 502,495 17,17 -7,7 -17,-17"/><path class="d" d="m 481,516 -3,-3 v 0 l 35,-35 3,3"/><path class="b d" d="m 516,481 3,3 -35,35 -3,-3"/></svg>
