<?xml version="1.0" encoding="UTF-8" standalone="no"?>
<svg xmlns="http://www.w3.org/2000/svg" viewBox="0 0 100 100">
  <path style="fill:#000080;fill-opacity:1;stroke:#000000;stroke-width:0.2;stroke-opacity:1" d="M 85.355366 14.644687 A 50 50 0 0 1 100 50 L 100 50 L 100 50 A 50 50 0 0 1 50 100 A 50 50 0 0 1 14.644634 85.355313 " id="path948" />
  <path style="fill:#000080;fill-opacity:1;stroke:#000000;stroke-width:0.2;stroke-opacity:1" d="M 14.644634 85.355313 A 50 50 0 0 1 0 50 A 50 50 0 0 1 50 0 A 50 50 0 0 1 85.355366 14.644687 " id="c01" />
  <path style="fill:#000080;fill-opacity:1;stroke:#ffffff;stroke-width:0.2;stroke-opacity:1" d="M 78.284581 21.716039 A 40 40 0 0 1 90 50 L 90 50 L 90 50 A 40 40 0 0 1 50 90 A 40 40 0 0 1 21.715419 78.283961 " id="path951" />
  <path style="fill:#f4f4f4;fill-opacity:1;stroke:#ffffff;stroke-width:0.2;stroke-opacity:1" d="M 71.212207 28.785801 A 30 30 0 0 1 80 50 L 80 50 L 80 50 A 30 30 0 0 1 50 80 A 30 30 0 0 1 28.787793 71.214199 " id="path954" />
  <path style="fill:none;fill-opacity:1;stroke:#ffffff;stroke-width:0.2;stroke-opacity:1" d="M 28.787793 71.214199 A 30 30 0 0 1 20 50 A 30 30 0 0 1 50 20 A 30 30 0 0 1 71.212207 28.785801 " id="c05" />
  <path style="fill:#f4f4f4;fill-opacity:1;stroke:#000000;stroke-width:0.2;stroke-opacity:1" d="M 64.141422 35.857151 A 20 20 0 0 1 70 50 L 70 50 L 70 50 A 20 20 0 0 1 50 70 A 20 20 0 0 1 35.858578 64.142849 " id="path957" />
  <path style="fill:#000080;fill-opacity:1;stroke:#000000;stroke-width:0.2;stroke-opacity:1" d="M 57.070785 42.928649 A 10 10 0 0 1 60 50 L 60 50 A 10 10 0 0 1 50 60 A 10 10 0 0 1 42.929215 57.071351 " id="path960" />
  <path style="fill:#f4f4f4;fill-opacity:1;stroke:#000000;stroke-width:0.2;stroke-opacity:1" d="M 42.929215 57.071351 A 10 10 0 0 1 40 50 A 10 10 0 0 1 50 40 A 10 10 0 0 1 57.070785 42.928649 " id="c09" />
  <path style="fill:#000080;fill-opacity:1;stroke:#ffffff;stroke-width:0.2;stroke-opacity:1" d="M 53.536227 46.46516 A 5 5 0 0 1 55 50 L 55 50 A 5 5 0 0 1 50 55 A 5 5 0 0 1 46.463773 53.53484 " id="path963" />
  <path style="fill:#f4f4f4;fill-opacity:1;stroke:#000000;stroke-width:0.2;stroke-opacity:1" d="M 46.463773 53.53484 A 5 5 0 0 1 45 50 A 5 5 0 0 1 50 45 A 5 5 0 0 1 53.536227 46.46516 " id="c10" />
  <path style="fill:#000080;fill-opacity:1" d="M 49.646447 50.353553 L 47.87868 48.585786 L 48.585786 47.87868 L 48.585786 47.87868 L 50.353553 49.646447 " id="path966" />
  <path style="fill:#f4f4f4;fill-opacity:1" d="M 50.353553 49.646447 L 52.12132 51.414214 L 51.414214 52.12132 L 49.646447 50.353553 " id="rect915" />
  <path style="fill:#000080;fill-opacity:1" d="M 48.232233 51.767767 L 47.87868 51.414214 L 47.87868 51.414214 L 51.414214 47.87868 L 51.767767 48.232233 " id="path969" />
  <path style="fill:#f4f4f4;fill-opacity:1" d="M 51.767767 48.232233 L 52.12132 48.585786 L 48.585786 52.12132 L 48.232233 51.767767 " id="rect917" />
</svg>