<?xml version="1.0" encoding="UTF-8" standalone="no"?><svg viewBox="0 0 922 1000" width="922" height="1000" xmlns="http://www.w3.org/2000/svg"><style>path {stroke:#000000;stroke-width:2;} .a {fill:#876a41;} .b {fill:#fee6a7;} .c {fill:#987b51;} .d {fill:#b6812e;} .e {fill:#d3a65d;} .f {fill:#7e5f39;} .g {fill:#fff2c2;} .h {fill:none;} .i {fill:#000000;}</style><path class="a" d="m 763,627 c 22,48 41,99 67,145 11,14 -11,27 -18,39 -28,34 -58,69 -75,111 -2,26 -10.70988,8 -12,6 -2,16 -20.9297,24 -34,15 -22,-12 7,-15 14,-26 9,-26 33,-45 48,-69 15,-20.51773 38,-43 28,-70.95394 -42,-30.67949 -90.69638,-60.4178 -111,-111 -15,-17 20.87821,-14 30.97081,-21 20.91363,-6 41,-12 62,-19 z m -336,14 c 14,66 27,134 32,202.17088 2,25 7,50.0456 15,73 2,35 -12,-24 -9,5 -9,12 15,39 -7,35 -11,-2 -46,10.20254 -29,-11 19,-18 6,-47 9,-70.48235 -4,-31 -10.30484,-63 -27,-91 -6,-18 -18,-37 -21,-55 12,-29 25,-58 38,-88 z"/><path class="b" d="m 715,650.05373 c -34,14 -70.98009,25 -108.72411,29 -57,7 -115,-3 -173,-7 -26,4 -16,-14 -10.31809,-30.70337 3,-17 29,-7 43,-13 82,-8 164,-17 246,-25 1,15 1,31 2,47 z"/><path class="c" d="M 147,253 C 131,236 106.27336,237 88,222 c -21,-13 -14,12 -5,22 7,21 20.896476,48 46,46 8,-11 37,-20.47158 19,-35 l -1,-2 z m 682,185 c 20.17152,7 40.01053,15 53,33 14,15 31,32 30.4541,55 2,19 4,39 6,58 -21,-54 -58,-99 -90.13475,-148 z"/><path class="b" d="m 843,475 c 16,1 32,8 36,26 5,32 14,-5 15,23 6,8 14,11 13,34 9,18 14,30.69559 -7,13 -11,-7 -19,-38 -20.54844,-20.4348 -12,-22 -28,-43 -38,-67 0,-3 1,-6 1,-9 z"/><path class="c" d="m 268,314 c 11,25 13,54 27,79 36,20.47933 77,1 116,6 34,11 69,8 105.22695,4 68,-3 137,2 206.2112,5 31,-2 66,-2 92,19 20.25585,12 47,25 46,53 7,48 -2,97 -18,143 -9,32 9,73 42,84 17,4 33,17 27,37 -1,58 -11,117 -2,175 4,11 -1,44 -11,18 -2,17 -6,32 -27,29 -19,11 -34,-4 -13,-15 28,-12 19,-48 22,-73 1,-36 5,-74 -1,-110.58356 -9,-12 -27,-13 -40.87043,-22 -41,-20.67104 -83,-44 -115,-77 -12,-16 -13,-37 -19,-56 -38,1 -77,4 -112,20.92962 -20.94332,3 -22,9 -19,13 -8,5 -45,-12 -27,3 -8,2 -31,-1 -45,-4 -20.44753,-3 -41,-7 -62,-4 -24,47 -40.88231,97 -69,142 -7,29 -19,57 -29,86 -4,26 -5,54 -9,81 -5,-14 -18,-1 -16,16 2,9 -33,24 -32,9 -8,-17 17,-22 14,-41 8,-28 21,-55 25,-86 6,-28 6,-57 12,-85 1,-32 8,-64 5,-97 -24,-9 -51,-21 -69,-42 -20.84542,-34 -46,-66 -70.98707,-98 -17,-27 -30.67289,-57 -30.09254,-90.38724 -1,-17 -2,-38 2,-53 33,-23 66,-47 99,-71 z"/><path class="d" d="m 368,113 c 12,-33 22,-73 4,-106.3120559 -7,14 1,33 -3,49 2,15 -13,27 -7,41 2,3 3,16 6,15 z"/><path class="e" d="m 249,260.56739 c -15,-7 -39,-13 -16,-28 14,-11 13,-30.89106 2,-44 -9,-18 -13,-43 -1,-61 6,13 0,31 9,45 5,11 16,40.95302 28,20.18706 22,-23 61,-31 74,-63 C 348,100.85319 315,105.06389 299,94 287,87 271,79 268,64 287,58 297,84 316,86 329,90.878223 354,93 347,71 345,47 332,25 317,7 c 2,-19 25,5 29,14 17,21 11,51 19,76 9,15 28,-3 33,-14 10.25269,-14 11,-32 15,-49 14,5 3,29 1,41 -9,36 -45,56 -69,82 -32,24 -68,47 -92,81 -2,6 -4,12 -6,18 z m -73,-1 c -16,11 -26,6 -30.77651,-13 C 130.22854,213 109.0196,184 78,164 47,139 10.314665,111 4,68 2,49 -4,27 6,10.771786 20.760288,18 13,41 17,55 c 4,12 4,34 20.245504,36 9,-25 6,-53 8,-79 10.54441,-4 8,26 10.653466,37 2,22 -12,47 1,67 10.102412,13 29,30.08852 27,1 4,-35 11,-71 30.045838,-102.343953 14,3 -5,28 -5,40.084742 -5,29 -12,59 -9,88 11,23 36,38 47,62 10.52711,1 17,-23 22,-34 6,-15 -6,-31 -1,-46 16,-2 15,23 16,35 4,23 -17,41 -20.33147,63 3,11 6,22 9,33 z"/><path class="b" d="m 252,359 c -4,15 14,34 3,39 10.65191,10.8947 -7,14 -2,33 -2,27 -30.77699,56 -59,41 -1,9 -18,-19 -24,-27 -2,-13 -12,-36 -1,-45 28,-13 56,-27 84,-41 z"/><path class="c" d="m 252,259 c 25,0 34,-28 58,-32 11,2 29,-27 30.96433,-8 -1,30.52357 -8,66 -38,81 -13,2 -35,-1 -35,19 2,24 -7,48 -29,60.56774 -17,12 -38,15 -53,29 -16,3 -35,2 -46,-10.29968 -14,-10.18446 -1,-29 1,-42 -0,-12 -4,-34 -12,-39 -10.15328,6 12,-17 -6,-21 18,7 7,-20.78266 20.38251,-28 11,-8 15,-24 35,-24 12,1 29,2 42,-3 12,1 30.76375,7 32,20.84694 z"/><path class="f" d="m 271,296 c 22,2 21,3 33,-11 14,-1 15,-21 11,-25 14,-14 10.40397,-20.57984 19,-37 -16,19 -51,27 -50.96807,57 -25,12 10.59028,3 -14,16 z"/><path class="g" d="m 195,379 c -4,-32 -67,-30.18496 -64,5 -2,22 16,10.02935 29,11 13,5 38,8 38,-11 1,-9 -3,-1 -4,-5 z"/><path class="h" d="m 435,644 c -4,-15 -18,-27 -20.87159,-44 -1,-7 -2,-14 -3,-21 m -74,89 c -6,-14 -13,-29 -20.18213,-43 m 386,-8 c -3,-20.57216 -6,-41 -9,-61 M 241,297 c 10.97749,5 17,8 -2,6 m 10.79476,-25 c 5,3 7,8 8,14 m -76,53 c 9,-7 15,-19 24,-28 m -45,-7 c -1,-6 -2,-12 -5,-18 m -10.78533,59 c 3,-8 3,-21 11,-26 m 100.92951,-10.78914 c -5,9 -15,16 -18,27 m -6,-54 c -16,-7 -18,12 -22,22 m -7,74 c 3,-13 7,-34 21,-40.77338 m -32,53 c 4,-1 11,-1 13,-6 m 1,-3 c 6,-15 27,-12 32,-27 m -91,-40.56358 c 0,2 0,5 1,7 m 3,-65 c 0,1 1,3 1,4 m 32,-21 c 1,1 3,2 3,3 m 25,-4 c -1,2 -2,4 -3,7 m 72,720.00839 c 4,-2 8,-5 11,-9 m 142,-12 c 4,-5 6,-11 8,-17 m 417,32 c 6,-4 11,-9 14,-16 m -199,-2 c 8,-6 17,-11 27,-15"/><path class="i" d="m 686,938 c -9,-9 -39,11 -21,16 -11,14 23,12 32,8 17,-3 25,-26 1,-21 -4,-1 -9,-1 -12,-4 z m -375,33 c 6,17 -10.8007,28 -26,26 -24,3 -16,-10.06452 -28,-12 12,-11 19,-24 32,-10.78679 7,1 18,3 21,-3 z m 156,-15 c 5,20.13197 -16,21 -30.18007,24 -25,5 -13,-13 -30.17537,-13 10.74691,-15 23,-19 30.17301,-20.77918 9,8 17,13 30.18243,9 z m 426,8 c 4,18 -15,25 -30.73544,25 -14,3 -28,-9 -22,-19 9,-17 21,-3 39,-4 4,1 9,-0 14,-1 z M 186,375 c -14,-7 -31,1 -45,-4 -8,-2 -0,16 2,24 3,4 41,4 30.66163,3 -20.4931,-11 2,-12 10.77668,-16 1,0 1,-9 1,-6 z m -41,-55 c 7,-14 -20.35973,-30.33903 -17,-10.19275 2,8 18,-1 17,10.19275 z m 69,1 c 3,-9 16,-32 26,-15 5,20.52304 -19,4 -26,15 z"/></svg>
