<?xml version="1.0" encoding="UTF-8" standalone="no"?>
<svg xmlns="http://www.w3.org/2000/svg" viewBox="0 0 391.025 424.591">
  <path style="clip-rule:evenodd;fill:#876a41;fill-opacity:1;fill-rule:evenodd;stroke:#000000;stroke-width:0.72000003;stroke-linejoin:bevel;stroke-miterlimit:2.41420007" d="m 181.09974,272.824 c 6.32692,28.2884 11.47127,56.84587 13.61903,85.7655 0.85109,10.6128 3.35851,21.23049 6.43433,31.18718 1.00616,15.0683 -5.14388,-10.27247 -3.91926,2.44254 -4.12864,5.11928 6.5247,16.60541 -3.28512,15.13196 -4.98504,-1.05968 -19.81887,4.32815 -12.64822,-4.68924 8.06599,-7.80792 2.58303,-19.99839 3.88468,-29.90022 -2.07208,-13.44763 -4.37118,-26.99703 -11.52336,-38.83519 -2.72893,-7.89642 -7.78024,-15.85774 -8.96488,-23.75352 5.4676,-12.44967 10.9352,-24.89934 16.4028,-37.34901 z" id="path9"/>
  <path style="clip-rule:evenodd;fill:#876a41;fill-opacity:1;fill-rule:evenodd;stroke:#000000;stroke-width:0.72000003;stroke-linejoin:bevel;stroke-miterlimit:2.41420007" d="m 324.03074,266.465 c 9.65749,20.44647 17.57499,42.00714 28.42591,61.71047 5.05292,6.22579 -5.02973,11.50633 -7.87857,16.66749 -11.98864,14.76414 -24.99297,29.53956 -32.0566,47.37125 -0.90484,11.1358 -4.54299,3.4116 -5.46418,2.84273 -0.88997,7.12218 -8.87811,10.49363 -14.53498,6.72501 -9.62251,-5.46184 3.09014,-6.49218 5.99142,-11.37495 4.17622,-11.22458 14.25589,-19.21671 20.77595,-29.32872 6.36318,-8.70409 16.3775,-18.31113 12.28605,-30.10028 -18.10353,-13.01494 -38.47224,-25.63061 -47.29629,-47.14978 -6.36637,-7.44828 8.85627,-6.02624 13.13742,-9.09975 8.87129,-2.75449 17.74258,-5.50898 26.61387,-8.26347 z" id="path16"/>
  <path style="clip-rule:evenodd;fill:#fee6a7;fill-opacity:1;fill-rule:evenodd;stroke:#000000;stroke-width:0.72000003;stroke-linejoin:bevel;stroke-miterlimit:2.41420007" d="m 303.68574,276.216 c -14.7991,6.28406 -30.10884,10.89198 -46.11937,12.68793 -24.44747,3.29328 -49.09937,-1.43749 -73.51853,-3.32539 -11.28038,1.91993 -7.01687,-6.07008 -4.3768,-13.02507 1.56033,-7.58534 12.62848,-3.35799 18.48122,-5.61035 34.83883,-3.66337 69.67765,-7.32675 104.51648,-10.99012 0.339,6.75433 0.678,13.50867 1.017,20.263 z" id="path23"/>
  <path style="clip-rule:evenodd;fill:#987b51;fill-opacity:1;fill-rule:evenodd;stroke:#000000;stroke-width:0.72000003;stroke-linejoin:bevel;stroke-miterlimit:2.41420007" d="m 352.43174,186.607 c 8.5565,3.26298 16.97195,6.73332 22.54576,14.38125 6.215,6.63248 13.48295,13.63485 12.91824,23.42693 1.21484,8.30316 1.8837,16.67021 2.77,25.01182 -9.26007,-22.94686 -24.8817,-42.21413 -38.234,-62.82 z" id="path30"/>
  <path style="clip-rule:evenodd;fill:#fee6a7;fill-opacity:1;fill-rule:evenodd;stroke:#000000;stroke-width:0.72000003;stroke-linejoin:bevel;stroke-miterlimit:2.41420007" d="m 357.85674,202.036 c 7.20061,0.32467 13.94815,3.50714 15.55296,11.1484 2.49098,13.97315 6.18099,-2.21511 6.76503,9.82968 2.92643,3.54083 6.22578,4.93689 5.64568,14.44593 4.20811,7.93314 6.05675,13.02177 -3.22655,5.65877 -4.72656,-3.10407 -8.33474,-16.18139 -8.71638,-8.66891 -5.20828,-9.54843 -12.29671,-18.65803 -16.34887,-28.47631 0.10938,-1.31252 0.21875,-2.62504 0.32813,-3.93756 z" id="path37"/>
  <path style="clip-rule:evenodd;fill:#987b51;fill-opacity:1;fill-rule:evenodd;stroke:#000000;stroke-width:0.72000003;stroke-linejoin:bevel;stroke-miterlimit:2.41420007" d="m 113.95874,133.878 c 4.73021,10.91787 5.88498,23.24535 11.529,33.655 15.35748,8.6878 32.98596,0.76104 49.21008,2.90976 14.54439,4.79599 29.68489,3.63886 44.63592,2.00824 29.18741,-1.6906 58.35994,0.8703 87.47214,2.25076 13.54415,-0.98435 28.10357,-1.08757 39.14274,8.09062 8.59227,5.36949 20.27897,10.67511 19.7047,22.61376 3.02724,20.71288 -1.10837,41.39173 -7.70256,61.00365 -3.87009,13.89259 3.88914,31.19148 18.13198,35.74621 7.22677,1.86891 14.14707,7.59424 11.67981,15.74918 -0.64048,24.79473 -4.81792,49.66371 -0.99881,74.36482 1.77604,5.07357 -0.41148,19.06675 -5.089,8.053 -0.90915,7.52554 -2.64746,13.61851 -11.62413,12.61527 -8.08147,4.94515 -14.51474,-2.10496 -5.88254,-6.7 12.18714,-5.13637 8.28852,-20.54971 9.55999,-31.03392 0.38224,-15.56128 2.33596,-31.78953 -0.8244,-46.91207 -4.15281,-5.18206 -11.78659,-5.68565 -17.33671,-9.64824 -17.64154,-8.76913 -35.33532,-18.80345 -49.08921,-33.02204 -5.34783,-6.96425 -5.54834,-15.76251 -8.138,-23.822 -16.37341,0.3432 -32.89583,1.69841 -47.8904,8.87882 -8.88389,1.5928 -9.39482,4.23105 -8.29402,5.62343 -3.75524,2.21821 -19.49803,-5.36207 -11.57588,1.55887 -3.68598,0.88177 -13.31765,-0.79659 -19.20666,-1.77759 -8.67358,-1.29437 -17.69889,-3.02685 -26.37804,-1.99153 -10.30483,19.97047 -17.34175,41.47992 -29.415,60.532 -3.27957,12.51556 -8.29322,24.55569 -12.34891,36.70697 -2.02855,11.4175 -2.53701,23.14159 -4.01509,34.50403 -2.2855,-6.28681 -7.88643,-0.31913 -7.00804,6.98157 0.97947,4.06356 -14.36327,10.40039 -13.84155,4.03007 -3.70409,-7.45364 7.5308,-9.47934 6.20185,-17.74388 3.46885,-12.2606 9.25603,-23.72633 10.98772,-36.5078 2.63521,-11.92498 2.96736,-24.22237 5.21198,-36.25576 0.58003,-13.7424 3.47968,-27.48471 2.17704,-41.2272 -10.58945,-3.99681 -21.7022,-9.25406 -29.32401,-17.95313 -8.84236,-14.76378 -19.638697,-28.18901 -30.111803,-41.71596 -7.322048,-11.58596 -13.011046,-24.36065 -12.76487,-38.34433 -0.404233,-7.42996 -1.16282,-16.22891 1.164778,-22.87218 14.016635,-10.11613 28.03327,-20.23227 42.049905,-30.3484 z" id="path44"/>
  <path style="clip-rule:evenodd;fill:none;stroke:#000000;stroke-width:0.72000003;stroke-linejoin:bevel;stroke-miterlimit:2.41420007" d="m 287.66274,400.749 c 3.45668,-2.71748 7.60664,-4.78778 11.615,-6.611" id="path46"/>
  <path style="clip-rule:evenodd;fill:none;stroke:#000000;stroke-width:0.72000003;stroke-linejoin:bevel;stroke-miterlimit:2.41420007" d="m 365.82674,408.974 c 2.94398,-1.7735 4.82522,-4.07216 6.357,-7.122" id="path48"/>
  <path style="clip-rule:evenodd;fill:#000000;fill-opacity:1;fill-rule:evenodd;stroke:#000000;stroke-width:0.72000003;stroke-linejoin:bevel;stroke-miterlimit:2.41420007" d="m 379.13574,409.738 c 1.73272,7.73247 -6.58672,10.76685 -13.03758,10.70778 -6.1362,1.54655 -12.09187,-3.95024 -9.53187,-8.40035 4.16956,-7.48985 9.3033,-1.63024 16.56693,-1.7299 2.10953,0.53187 3.97285,-0.20846 6.00252,-0.57753 z" id="path55"/>
  <path style="clip-rule:evenodd;fill:#000000;fill-opacity:1;fill-rule:evenodd;stroke:#000000;stroke-width:0.72000003;stroke-linejoin:bevel;stroke-miterlimit:2.41420007" d="m 198.39474,406.005 c 2.38564,8.54044 -6.8446,9.26263 -12.802,10.342 -10.89627,2.49948 -5.5539,-5.91158 -12.8,-5.595 4.5587,-6.37264 9.88675,-8.35417 12.799,-8.815 4.20179,3.78381 7.53156,5.64746 12.803,4.068 z" id="path62"/>
  <path style="clip-rule:evenodd;fill:#000000;fill-opacity:1;fill-rule:evenodd;stroke:#000000;stroke-width:0.72000003;stroke-linejoin:bevel;stroke-miterlimit:2.41420007" d="m 132.01474,412.788 c 2.62507,7.47154 -4.58152,11.96537 -11.33923,11.39052 -10.26486,1.63724 -6.8591,-4.2696 -11.88677,-5.28652 5.38546,-4.88084 8.27929,-10.53101 13.902,-4.576 3.06,0.27757 7.8165,1.6821 9.324,-1.528 z" id="path69"/>
  <path style="clip-rule:evenodd;fill:none;stroke:#000000;stroke-width:0.72000003;stroke-linejoin:bevel;stroke-miterlimit:2.41420007" d="m 184.91474,402.614 c 1.75593,-2.18162 2.80293,-4.70936 3.815,-7.288" id="path71"/>
  <path style="clip-rule:evenodd;fill:none;stroke:#000000;stroke-width:0.72000003;stroke-linejoin:bevel;stroke-miterlimit:2.41420007" d="m 119.80874,412.193 c 2.08401,-0.90957 3.59076,-2.25039 4.831,-4.152" id="path73"/>
  <path style="clip-rule:evenodd;fill:#987b51;fill-opacity:1;fill-rule:evenodd;stroke:#000000;stroke-width:0.72000003;stroke-linejoin:bevel;stroke-miterlimit:2.41420007" d="m 62.83974,107.85 c -7.02749,-7.02114 -17.678772,-6.68314 -25.265,-12.885 -9.159402,-5.68824 -6.231085,5.44765 -2.193965,9.54873 3.116855,9.00316 8.864018,20.37242 19.911965,19.70027 3.461676,-4.94761 15.76851,-8.68451 8.338989,-15.12287 l -0.621002,-0.97318 z" id="path80"/>
  <path style="clip-rule:evenodd;fill:#b6812e;fill-opacity:1;fill-rule:evenodd;stroke:#000000;stroke-width:0.72000003;stroke-linejoin:bevel;stroke-miterlimit:2.41420007" d="m 156.43074,48.423 c 5.20042,-14.174328 9.4679,-31.054646 1.949,-45.1 -3.01015,5.9535618 0.82291,14.047909 -1.39338,20.817529 0.91702,6.408775 -5.69196,11.844711 -3.20638,17.739315 0.90625,1.361659 1.51871,7.190809 2.65076,6.543156 z" id="path87"/>
  <path style="clip-rule:evenodd;fill:#d3a65d;fill-opacity:1;fill-rule:evenodd;stroke:#000000;stroke-width:0.72000003;stroke-linejoin:bevel;stroke-miterlimit:2.41420007" d="m 74.79174,110.223 c -6.861912,4.94433 -11.297681,2.88627 -13.055,-5.679 C 55.322446,90.934721 46.325888,78.579943 33.555703,70.31339 20.279367,59.433351 4.4565241,47.832933 2.1247753,29.534602 1.0809652,21.651222 -1.8067125,12.156901 2.64874,5.018 8.8874227,8.4385475 5.7145292,17.964453 7.4568578,24.030271 9.2693046,29.337278 9.2857454,38.554434 16.04474,39.521 c 3.842698,-10.966986 2.596917,-22.586914 3.557,-33.91 4.472803,-2.0246832 3.681531,11.37373 4.519063,15.818926 1.202994,9.502163 -5.393068,20.353884 0.511467,28.774545 4.285313,5.862691 12.718506,12.764237 11.643412,0.77317 C 38.180641,35.932355 41.334521,20.823671 49.02074,7.561 55.091023,9.1627111 46.864172,19.511785 46.823792,24.565863 44.653705,36.946063 41.626265,49.646877 42.74774,62.24 47.742208,72.061649 58.021529,78.53664 63.077664,88.62868 67.54313,89.044813 70.51504,78.563182 72.67174,73.939 c 2.758432,-6.626188 -2.865428,-13.251953 -0.338,-19.666 7.183948,-1.045407 6.544896,9.920052 7.155824,14.873207 1.896397,10.1232 -7.50333,17.629938 -8.624351,26.846692 1.291856,4.745491 2.710644,9.474281 3.926527,14.230101 z" id="path94"/>
  <path style="clip-rule:evenodd;fill:#d3a65d;fill-opacity:1;fill-rule:evenodd;stroke:#000000;stroke-width:0.72000003;stroke-linejoin:bevel;stroke-miterlimit:2.41420007" d="M 105.98874,110.987 C 99.623508,107.72465 89.211109,105.30137 98.977336,98.694601 105.18048,93.699329 104.73431,85.589905 100.0565,79.676441 96.033383,71.939092 94.318448,61.032794 99.71574,53.679 c 2.72489,5.888205 0.099,13.41665 3.87167,19.431177 2.22217,4.773819 6.91139,17.373208 12.02115,8.563813 9.6857,-9.99465 25.97358,-13.508454 31.49518,-27.14799 C 147.88825,43.23259 134.03488,45.018864 127.268,40.549398 121.91001,37.609035 115.3433,34.169905 113.87074,27.738 c 8.11113,-2.541699 12.40611,8.416396 20.262,9.324 5.88679,1.93898 16.36481,3.107153 13.43274,-6.358255 C 146.7794,20.453852 141.04606,11.45213 134.72574,3.662 c 1.01665,-8.2478 10.81373,2.3601538 12.71861,6.2513687 7.3351,9.3300283 5.00094,21.9513043 8.07523,32.4466133 3.95199,6.733911 12.00822,-1.645284 14.41596,-6.011373 4.34906,-6.17163 4.75007,-13.795687 6.7562,-20.818609 6.13024,2.454972 1.38632,12.430576 0.50327,17.692484 -3.9113,15.637493 -19.12495,23.977472 -29.4968,35.06861 -13.75858,10.601528 -28.93246,20.31898 -39.08247,34.728906 -0.87567,2.65567 -1.75133,5.31133 -2.627,7.967 z" id="path101"/>
  <path style="clip-rule:evenodd;fill:#fee6a7;fill-opacity:1;fill-rule:evenodd;stroke:#000000;stroke-width:0.72000003;stroke-linejoin:bevel;stroke-miterlimit:2.41420007" d="m 107.34674,153.035 c -1.73594,6.7766 6.18268,14.55533 1.58973,16.76578 4.5184,4.62178 -3.06249,6.08978 -1.20168,14.17519 -1.1681,11.73815 -13.055203,24.13819 -25.22905,17.80703 -0.431767,3.89753 -7.865677,-8.36466 -10.388144,-11.55976 -1.055218,-5.78177 -5.186719,-15.42386 -0.513094,-19.47546 11.91408,-5.90426 23.828159,-11.80852 35.742238,-17.71278 z" id="path108"/>
  <path style="clip-rule:evenodd;fill:#987b51;fill-opacity:1;fill-rule:evenodd;stroke:#000000;stroke-width:0.72000003;stroke-linejoin:bevel;stroke-miterlimit:2.41420007" d="m 107.00674,110.563 c 10.62486,0.007 14.49104,-12.274978 24.65561,-13.870422 5.00093,0.893019 12.41048,-11.690181 13.13467,-3.665441 -0.53244,12.948793 -3.68001,28.350013 -16.22352,34.685823 -5.88928,1.07246 -15.06687,-0.55968 -14.86876,8.19704 0.94072,10.30855 -3.23373,20.53554 -12.51613,25.69422 -7.219471,5.16785 -16.11974,6.6986 -22.75087,12.70878 -6.879039,1.3779 -14.862032,0.85465 -19.739859,-4.36936 -6.178102,-4.32048 -0.469247,-12.38827 0.507025,-18.0541 -0.01354,-5.45597 -1.880772,-14.42929 -5.355166,-16.65654 -4.30689,2.87994 5.355028,-7.57874 -2.797,-9.241 8.055071,3.21033 3.380691,-8.81648 8.646,-11.955 4.841062,-3.71571 6.595908,-10.3487 15.183951,-10.58483 5.481997,0.78992 12.644084,0.88647 17.860812,-1.30992 5.122301,0.25796 13.049587,3.11206 13.751237,8.84375 z" id="path115"/>
  <path style="clip-rule:evenodd;fill:#7e5f39;fill-opacity:1;fill-rule:evenodd;stroke:#000000;stroke-width:0.72000003;stroke-linejoin:bevel;stroke-miterlimit:2.41420007" d="m 115.06074,126.332 c 9.54508,0.96313 9.17482,1.36177 14.243,-5.088 6.00518,-0.47173 6.37173,-9.09697 5.085,-10.679 6.09623,-6.0737 4.41323,-8.73044 8.31,-15.937 -7.03747,8.17498 -21.73318,11.53153 -21.62,24.499 -10.75398,5.42832 4.49226,1.43633 -6.018,7.205 z" id="path122"/>
  <path style="clip-rule:evenodd;fill:#000000;fill-opacity:1;fill-rule:evenodd;stroke:#000000;stroke-width:0.72000003;stroke-linejoin:bevel;stroke-miterlimit:2.41420007" d="m 91.06974,136.758 c 1.596158,-4.1177 7.116974,-13.75784 11.17321,-6.63491 2.21391,8.70634 -8.396104,1.96634 -11.17321,6.63491 z" id="path129"/>
  <path style="clip-rule:evenodd;fill:none;stroke:#000000;stroke-width:0.72000003;stroke-linejoin:bevel;stroke-miterlimit:2.41420007" d="m 63.26274,169.481 c -0.914444,0.0276 -1.804568,0.38468 -2.713,0" id="path139"/>
  <path style="clip-rule:evenodd;fill:none;stroke:#000000;stroke-width:0.72000003;stroke-linejoin:bevel;stroke-miterlimit:2.41420007" d="m 90.73074,103.697 c -0.563111,0.9932 -1.120893,1.98162 -1.528,3.052" id="path143"/>
  <path style="fill:none;stroke:#000000;stroke-width:0.72000003;stroke-linejoin:bevel;stroke-miterlimit:2.41420007" d="m 106.75274,110.987 c -0.12206,0.36494 -0.57606,1.72227 -0.681,2.036" id="path145"/>
  <path style="fill:none;stroke:#000000;stroke-width:0.72000003;stroke-linejoin:bevel;stroke-miterlimit:2.41420007" d="m 78.18474,104.292 c 0.287486,0.25579 1.303486,1.15979 1.524,1.356" id="path147"/>
  <path style="fill:none;stroke:#000000;stroke-width:0.72000003;stroke-linejoin:bevel;stroke-miterlimit:2.41420007" d="m 63.94074,111.581 c 0.121503,0.36512 0.51617,1.55112 0.592,1.779" id="path149"/>
  <path style="clip-rule:evenodd;fill:#000000;fill-opacity:1;fill-rule:evenodd;stroke:#000000;stroke-width:0.72000003;stroke-linejoin:bevel;stroke-miterlimit:2.41420007" d="m 61.56674,136.42 c 3.112021,-6.17151 -8.636337,-12.87051 -7.631,-4.324 1.155169,3.50413 7.859191,-0.3188 7.631,4.324 z" id="path160"/>
  <path style="clip-rule:evenodd;fill:#ffffff;fill-opacity:1;fill-rule:evenodd;stroke:#000000;stroke-width:0.72000003;stroke-linejoin:bevel;stroke-miterlimit:2.41420007" d="m 59.69974,164.311 c -5.299714,-3.20795 2.480915,-4.75312 0,0 z" id="path167"/>
  <path style="clip-rule:evenodd;fill:none;stroke:#000000;stroke-width:0.72000003;stroke-linejoin:bevel;stroke-miterlimit:2.41420007" d="m 54.27674,126.417 c 0.767489,-0.75515 2.022447,-0.81207 1.693,-2.29" id="path176"/>
  <path style="clip-rule:evenodd;fill:none;stroke:#000000;stroke-width:0.72000003;stroke-linejoin:bevel;stroke-miterlimit:2.41420007" d="m 102.34374,126.841 c 4.65651,2.5079 7.21579,3.39541 -1.018,2.628 m 4.579,-11.021 c 2.33781,1.42569 3.08834,3.56553 3.729,6.104 m -32.553,22.804 c 4.127952,-3.1296 6.762084,-8.10588 10.511,-11.954 m -19.327,-3.136 c -0.424428,-2.6967 -1.064721,-5.25951 -2.291,-7.713 m -4.575,25.431 c 1.316412,-3.70705 1.386739,-8.97509 4.914,-11.275 m 42.813,-4.577 c -2.46198,4.14087 -6.37626,6.81819 -8.053,11.528 m -2.713,-22.972 c -7.093092,-3.12034 -7.89423,5.12137 -9.582,9.663 m -3.389,31.706 c 1.385231,-5.88304 3.102942,-14.54184 8.986,-17.297 m -13.902,22.721 c 2.113912,-0.60193 4.714996,-0.62966 5.934,-2.797 m 0.422,-1.441 c 2.80684,-6.44619 11.752246,-5.32299 13.82,-11.7 m -38.828,-17.208 c 0.183876,1.0795 0.140746,2.19862 0.595,3.223" id="path193"/>
  <path style="clip-rule:evenodd;fill:#fff2c2;fill-opacity:1;fill-rule:evenodd;stroke:#000000;stroke-width:0.72000003;stroke-linejoin:bevel;stroke-miterlimit:2.41420007" d="m 83.18374,161.514 c -1.924324,-13.93736 -28.825795,-12.80515 -27.214,2.203 -1.217316,9.75632 7.160264,4.25468 12.404086,5.01237 5.552617,2.16848 16.43368,3.52091 16.507914,-4.92837 0.416412,-4.04394 -1.524925,-0.61149 -1.698,-2.287 z" id="path200"/>
  <path style="clip-rule:evenodd;fill:#000000;fill-opacity:1;fill-rule:evenodd;stroke:#000000;stroke-width:0.72000003;stroke-linejoin:bevel;stroke-miterlimit:2.41420007" d="m 79.28474,159.818 c -6.140582,-2.99229 -13.303112,0.66194 -19.329,-2.12 -3.55988,-1.23452 -0.09221,6.97247 0.973,10.44237 1.593988,1.91348 17.697062,1.8364 13.006269,1.29657 -8.692909,-4.98776 1.264396,-5.36602 4.571331,-7.02633 0.683766,0.20018 0.752576,-4.03 0.7784,-2.59261 z" id="path207"/>
  <path style="clip-rule:evenodd;fill:none;stroke:#000000;stroke-width:0.72000003;stroke-linejoin:bevel;stroke-miterlimit:2.41420007" d="m 298.09074,261.803 c -1.33024,-8.72718 -2.92163,-17.41717 -3.9,-26.194" id="path209"/>
  <path style="clip-rule:evenodd;fill:none;stroke:#000000;stroke-width:0.72000003;stroke-linejoin:bevel;stroke-miterlimit:2.41420007" d="m 142.78074,284.013 c -2.87868,-6.17715 -5.72309,-12.37004 -8.561,-18.566" id="path211"/>
  <path style="clip-rule:evenodd;fill:none;stroke:#000000;stroke-width:0.72000003;stroke-linejoin:bevel;stroke-miterlimit:2.41420007" d="m 184.74674,273.843 c -1.813,-6.6601 -7.79374,-11.5398 -8.85346,-18.76882 -0.55285,-3.04139 -1.10569,-6.08279 -1.65854,-9.12418" id="path213"/>
  <path style="clip-rule:evenodd;fill:#000000;fill-opacity:1;fill-rule:evenodd;stroke:#000000;stroke-width:0.72000003;stroke-linejoin:bevel;stroke-miterlimit:2.41420007" d="m 291.47774,398.632 c -3.86597,-4.21433 -16.96076,4.88938 -9.241,7.206 -4.71859,6.06761 10.13227,5.49625 13.93951,3.67996 7.3389,-1.32224 10.92431,-11.06007 0.68761,-8.9527 -1.97588,-0.34383 -3.99896,-0.22029 -5.38612,-1.93326 z" id="path220"/>
</svg>